<svg width="41" height="39" fill="none" xmlns="http://www.w3.org/2000/svg"><path d="M39.981 6.147L27.17.663a.672.672 0 00-.525 0l-12.55 5.372L1.544.663a.673.673 0 00-.61.044.604.604 0 00-.293.512v31.078c0 .24.148.457.378.556l12.812 5.484a.672.672 0 00.525 0l12.55-5.372 12.55 5.372a.666.666 0 00.61-.044.604.604 0 00.293-.512V6.703a.609.609 0 00-.378-.556zm-25.247.95l11.532-4.936v29.742L14.734 36.84V7.097zM1.922 2.161l11.531 4.936v29.742L1.922 31.903V2.16zm37.156 34.678l-11.531-4.936V2.161l11.531 4.936V36.84z" fill="#000"/><path d="M11.778 7.969L4.09 4.922a.664.664 0 00-.601.055.602.602 0 00-.286.507v7.922a.61.61 0 00.394.563l7.688 3.047a.665.665 0 00.602-.056.603.603 0 00.285-.507V8.531a.61.61 0 00-.394-.562zm-.887 7.57L4.484 13V6.4l6.407 2.539v6.601zm-7.292 1.483l.493-1.125 7.687 3.05-.493 1.125-7.687-3.05zm-.001 3.048l.494-1.125 7.686 3.05-.493 1.125-7.687-3.05zm0 3.048l.494-1.125 7.686 3.05-.493 1.125-7.687-3.05zm0 3.048l.494-1.125 7.686 3.05-.493 1.125-7.687-3.05zM24.7 22.04a.665.665 0 00-.602-.056l-7.688 3.047a.61.61 0 00-.394.563v7.922c0 .203.107.393.285.507a.666.666 0 00.602.055l7.687-3.047a.61.61 0 00.394-.562v-7.922a.603.603 0 00-.285-.507zm-.997 8.022l-6.406 2.54V26l6.406-2.54v6.602zm-7.289-8.079l7.687-3.05.493 1.125-7.687 3.05-.493-1.125zm-.001-3.047l7.687-3.05.494 1.125-7.687 3.05-.494-1.125zm0-3.047l7.687-3.05.493 1.125-7.687 3.05-.493-1.125zm-.001-3.047l7.687-3.05.493 1.125-7.686 3.05-.494-1.125zm12.81 1.127l7.688 3.047a.665.665 0 00.602-.056.603.603 0 00.285-.507V8.531a.61.61 0 00-.394-.562l-7.688-3.047a.665.665 0 00-.601.055.602.602 0 00-.286.507v7.922a.61.61 0 00.394.563zm.887-7.57l6.407 2.539v6.601L30.109 13V6.4zm-.875 10.624l.493-1.124 7.687 3.05-.494 1.124-7.686-3.05zm0 3.049l.493-1.125 7.687 3.05-.494 1.125-7.686-3.05zm-.001 3.048l.493-1.125 7.687 3.05-.493 1.125-7.687-3.05zm0 3.048l.493-1.125 7.687 3.05-.493 1.125-7.687-3.05z" fill="#000"/></svg>