<svg width="45" height="45" fill="none" xmlns="http://www.w3.org/2000/svg"><path d="M20.917 30.584a1.62 1.62 0 01-1.244-.565l-8.536-9.271c-.622-.679-.565-1.753.113-2.375.678-.622 1.752-.565 2.374.113l7.35 7.971L41.325 6.162c.679-.678 1.753-.678 2.375 0 .622.678.678 1.753 0 2.374l-21.596 21.54c-.282.339-.735.508-1.187.508z" fill="#FFBD3B"/><path d="M22.5 45C10.12 45 0 34.88 0 22.5S10.12 0 22.5 0c.961 0 1.696.735 1.696 1.696 0 .96-.735 1.696-1.696 1.696-10.515 0-19.108 8.593-19.108 19.108S11.985 41.608 22.5 41.608 41.608 33.015 41.608 22.5c0-.961.735-1.696 1.696-1.696S45 21.539 45 22.5C45 34.88 34.88 45 22.5 45z" fill="#000"/></svg>