<svg width="41" height="39" fill="none" xmlns="http://www.w3.org/2000/svg"><g clip-path="url(#clip0)"><g clip-path="url(#clip1)" fill="#000"><path d="M38.985 2.782H25.51c-1.11 0-2.015.86-2.015 1.917v12.284c0 1.056.904 1.916 2.015 1.916h13.475c1.111 0 2.015-.86 2.015-1.916V4.699c0-1.057-.904-1.917-2.015-1.917zM34.29 4.306v2.582l-.255-.138a.836.836 0 00-.821.015l-.895.53-.83-.52a.843.843 0 00-.837-.025l-.259.14V4.306h3.897zm5.11 12.677a.404.404 0 01-.414.393H25.51a.404.404 0 01-.413-.393V4.699c0-.217.185-.393.413-.393h3.281V8.2c0 .573.673.946 1.197.662l1.029-.558.848.532a.843.843 0 00.864.01l.926-.549 1.038.564c.525.285 1.198-.088 1.198-.661V4.306h3.094c.228 0 .413.176.413.393v12.284z"/><path d="M31.1 13.888h-3.016c-.442 0-.8.341-.8.762 0 .42.358.761.8.761H31.1c.443 0 .801-.34.801-.761 0-.42-.358-.762-.8-.762zm-1.82 7.439H6.714c-2.818 0-5.111-2.182-5.111-4.863 0-2.68 2.293-4.862 5.111-4.862h10.291c.443 0 .801-.34.801-.761 0-.42-.358-.762-.8-.762H6.712C3.011 10.079 0 12.944 0 16.465c0 3.52 3.011 6.385 6.713 6.385h22.568c1.724 0 3.126 1.334 3.126 2.974 0 1.64-1.402 2.974-3.126 2.974H23.02l.83-.79a.736.736 0 000-1.077.83.83 0 00-1.132 0l-2.198 2.09a.743.743 0 000 1.078l2.198 2.09a.839.839 0 001.132 0 .736.736 0 000-1.077l-.83-.79h6.26c2.608 0 4.729-2.018 4.729-4.498 0-2.48-2.121-4.497-4.728-4.497z"/><path d="M12.862 24.708c-3.037 0-5.508 2.35-5.508 5.24 0 1.078.353 2.183 1.033 3.053l3.832 4.914c.315.404.971.404 1.286 0L17.338 33c.68-.869 1.032-1.976 1.032-3.054 0-2.889-2.47-5.24-5.508-5.24zm3.18 7.396l-.017.024-3.163 4.055L9.7 32.128c-.46-.662-.744-1.378-.744-2.18 0-2.05 1.752-3.717 3.906-3.717s3.906 1.667 3.906 3.716c0 .778-.25 1.524-.726 2.157z"/><path d="M12.862 27.562c-1.382 0-2.507 1.07-2.507 2.385 0 1.315 1.125 2.385 2.507 2.385 1.383 0 2.507-1.07 2.507-2.385 0-1.315-1.124-2.385-2.507-2.385zm0 3.246c-.499 0-.905-.386-.905-.86 0-.476.406-.862.905-.862.5 0 .906.386.906.861s-.407.861-.906.861zm7.044-19.676c.165.384.643.57 1.046.412.402-.159.6-.612.433-.995-.167-.383-.643-.57-1.046-.412-.402.158-.6.612-.433.995z"/></g></g><defs><clipPath id="clip0"><path fill="#fff" d="M0 0h41v39H0z"/></clipPath><clipPath id="clip1"><path fill="#fff" transform="translate(0 1)" d="M0 0h41v39H0z"/></clipPath></defs></svg>