<svg width="41" height="39" fill="none" xmlns="http://www.w3.org/2000/svg"><path d="M33.313 20.265v-1.562l.552-.196c2.735-.976 4.572-3.498 4.572-6.277V9.14c.707 0 1.282-.546 1.282-1.218V6.703c0-.672-.575-1.219-1.282-1.219H38.4C38.08 2.746 35.634.61 32.672.61h-5.125c-2.962 0-5.408 2.137-5.728 4.875h-.038c-.706 0-1.281.547-1.281 1.22v1.218c0 .672.575 1.219 1.281 1.219h1.282v1.034l-.953 1.358a1.797 1.797 0 00-.329 1.034c0 .75.438 1.424 1.144 1.76l.137.065v1.452c0 1.68 1.437 3.047 3.204 3.047h1.922v1.294l-.755.096c-3.638.462-6.693 2.717-8.08 5.922h-3.337v-7.922h3.843v-4.875h-8.968v1.828H9.609v-1.828H5.766V9.75h3.843V3.656H.641V9.75h3.843v3.656H.641v4.875h8.968v-1.828h1.282v1.828h3.843v7.922h-2.562v-4.875H8.969c-1.766 0-3.203 1.367-3.203 3.047v10.969c0 1.68 1.437 3.047 3.203 3.047h18.578v-2.438h6.023c3.744 0 6.79-2.898 6.79-6.459 0-4.207-2.874-7.937-7.047-9.229zM1.922 4.875h6.406v3.656H1.922V4.875zm6.406 12.188H1.922v-2.438h6.406v2.438zm3.844-2.438h6.406v2.438h-6.406v-2.438zm24.984-2.395c0 2.273-1.503 4.337-3.741 5.135l-.102.037v-1.254l1.452-1.035A2.614 2.614 0 0035.875 13c0-1.388-1.131-2.528-2.563-2.633V9.141h3.844v3.09zm-9.61-10.402h5.126c2.254 0 4.12 1.593 4.433 3.656H23.114c.312-2.063 2.178-3.656 4.433-3.656zm-5.765 4.875h16.657v1.219H21.78V6.703zm4.485 10.969c-1.06 0-1.922-.82-1.922-1.828v-2.205l-.846-.402a.742.742 0 01-.436-.67c0-.128.04-.252.114-.358l1.168-1.665V9.141h7.687v2.437H33.1c.824 0 1.495.638 1.495 1.422 0 .445-.224.87-.599 1.137l-1.964 1.402v5.18c0 .672-.574 1.218-1.281 1.218s-1.281-.546-1.281-1.218v-3.047h-3.203zM8.969 22.547h1.922v3.656H8.969c-1.06 0-1.922-.82-1.922-1.828s.862-1.828 1.922-1.828zm17.297 14.625H8.969c-1.06 0-1.922-.82-1.922-1.828v-8.547a3.276 3.276 0 001.922.625h17.297v2.437c-1.414 0-2.563 1.094-2.563 2.438v1.219c0 1.344 1.15 2.437 2.563 2.437v1.219zm2.562-2.438h-2.562c-.707 0-1.282-.546-1.282-1.218v-1.22c0-.671.575-1.218 1.282-1.218h1.125c.342 0 .664.127.907.357l.53.505v2.794zm4.742 0h-3.46v-2.437h2.484a4.002 4.002 0 002.773-1.093 3.615 3.615 0 001.149-2.637v-1.755h-1.282v1.755c0 .671-.275 1.302-.773 1.776a2.731 2.731 0 01-1.867.735h-2.86l-.53-.504a2.599 2.599 0 00-1.657-.7v-3.67h-6.792c1.298-2.556 3.844-4.334 6.848-4.715l.7-.088c.311 1.01 1.284 1.755 2.447 1.755 1.122 0 2.067-.693 2.413-1.65 3.515 1.199 5.915 4.394 5.915 7.988 0 2.89-2.47 5.24-5.508 5.24z" fill="#000"/><path d="M3.203 6.094h3.844v1.218H3.203V6.095zm28.187 19.5h2.563v1.218h-2.562v-1.218z" fill="#000"/></svg>