<svg width="41" height="39" fill="none" xmlns="http://www.w3.org/2000/svg"><path d="M2.375 19.678a.672.672 0 00-.698-.132.635.635 0 00-.288.225.589.589 0 00-.108.338v17.063a.59.59 0 00.188.43c.12.115.283.18.453.18h17.937c.127 0 .25-.036.356-.103a.617.617 0 00.236-.274.582.582 0 00-.139-.664L2.375 19.678zm.188 16.884V21.581l15.75 14.982H2.563z" fill="#000"/><path d="M5.766 34.125h5.125c.126 0 .25-.036.355-.103a.616.616 0 00.236-.273.582.582 0 00-.138-.664L6.219 28.21a.672.672 0 00-.698-.132.634.634 0 00-.288.224.588.588 0 00-.108.338v4.876a.59.59 0 00.188.43c.12.115.283.179.453.179zm.64-4.013l2.938 2.794H6.406v-2.794zM8.328 3.656H9.61v1.219H8.33V3.656zm2.562 0h1.282v1.219H10.89V3.656zm2.563 0h1.281v1.219h-1.28V3.656zm1.022 8.584a.624.624 0 00-.279.224.579.579 0 00-.102.333V19.5c0 .118.036.233.103.332a.633.633 0 00.277.225l5.766 2.437a.666.666 0 00.52 0l5.766-2.437a.633.633 0 00.277-.225.588.588 0 00.103-.332v-6.703a.58.58 0 00-.102-.333.624.624 0 00-.279-.223v-.001L20.76 9.802a.67.67 0 00-.52 0l-5.766 2.438zM19.859 21l-4.484-1.896v-5.37l4.484 1.896V21zm5.766-1.896L21.141 21v-5.37l4.484-1.895v5.369zM20.5 11.026l4.188 1.77-4.188 1.772-4.188-1.771 4.188-1.77zm-.64 13.349h1.28v3.047h-1.28v-3.047zm0-18.891h1.28v3.047h-1.28V5.484zM9.33 11.522l.552-1.099 2.681 1.219-.552 1.1-2.681-1.22zm19.092.111l2.681-1.219.553 1.1-2.682 1.218-.552-1.099zM9.33 21.38l2.681-1.218.552 1.1-2.681 1.218-.553-1.1z" fill="#000"/><path d="M39.078 29.25h-3.844v-9.498l3.767-3.582a2.33 2.33 0 00.531-.757 2.235 2.235 0 000-1.785A2.328 2.328 0 0039 12.87a2.464 2.464 0 00-.795-.506 2.563 2.563 0 00-1.877 0c-.298.117-.568.29-.796.506l-.298.283V7.922a.584.584 0 00-.187-.431L28.64 1.397a.644.644 0 00-.453-.178H8.328c-.68 0-1.33.258-1.811.714a2.382 2.382 0 00-.751 1.723v17.672h1.28V3.656a1.19 1.19 0 01.377-.861 1.31 1.31 0 01.905-.357h19.219v3.656c0 .646.27 1.266.751 1.723.48.456 1.132.714 1.811.714h3.844v5.842l-10.062 9.571a.602.602 0 00-.175.312l-.641 3.046a.581.581 0 00.175.55.659.659 0 00.579.167l3.203-.609a.652.652 0 00.327-.167l6.594-6.272v8.279H21.141a.658.658 0 00-.453.178.595.595 0 00-.188.431v1.828h-3.203v1.22H20.5v1.827a.59.59 0 00.188.431c.12.114.283.179.453.179h17.937c.17 0 .333-.065.453-.179a.595.595 0 00.188-.43v-4.876a.595.595 0 00-.188-.43.658.658 0 00-.453-.179zM28.828 6.094V3.299l4.22 4.014h-2.939c-.34 0-.665-.13-.905-.358a1.19 1.19 0 01-.376-.861zM25.25 24.375l9.984-9.498 1.657 1.576-9.985 9.498-1.656-1.576zm12.016-10.969c.232 0 .458.066.65.188.194.123.344.296.432.5.089.204.112.428.067.644a1.098 1.098 0 01-.32.57l-.298.283-1.657-1.575.298-.283a1.17 1.17 0 01.38-.242c.142-.056.294-.085.448-.085zM24.737 25.611l.87.827-1.087.207.217-1.034zm13.7 8.514H21.782v-3.656h1.282v1.218h1.28V30.47h1.282v1.218h1.281V30.47h1.282v1.218h1.28V30.47h1.282v1.218h1.281V30.47h1.282v1.218h1.28V30.47h1.282v1.218h1.281V30.47h1.282v3.656z" fill="#000"/></svg>