<svg width="41" height="39" fill="none" xmlns="http://www.w3.org/2000/svg"><path d="M6.353 8.627c.379.494 1.103.54 1.54.102l.69-.691 7.837 7.836 1.45-1.45-7.836-7.836.695-.695c.44-.44.389-1.166-.103-1.54L6.52 1.212a1.026 1.026 0 00-1.348.09L3.3 3.17a1.023 1.023 0 00-.09 1.347l3.142 4.109zm15.96 17.978l.002-.067c0-.66-.623-1.642-.99-2.186l5.027-5.026c.556.374 1.594 1.031 2.255.985l-6.294 6.294z" fill="#000"/><path d="M36.086 12.157a6.536 6.536 0 01-6.93 1.494l-4.239 4.24-5.027 5.026-4.24 4.239a6.536 6.536 0 01-8.164 8.516.527.527 0 01-.202-.874l3.37-3.372-.553-2.528-2.527-.552-3.371 3.371a.527.527 0 01-.874-.202 6.537 6.537 0 018.516-8.165L25.35 9.845a6.537 6.537 0 018.164-8.516c.372.123.48.598.203.874l-3.37 3.37.55 2.529 2.53.553 3.37-3.371a.527.527 0 01.875.202 6.533 6.533 0 01-1.586 6.67zM37.34 28.49l-7.006-7.007-6.847 6.85 7.004 7.005a2.258 2.258 0 003.196 0l3.653-3.653c.88-.882.88-2.314 0-3.196z" fill="#000"/></svg>