<svg width="25" height="26" fill="none" xmlns="http://www.w3.org/2000/svg"><g clip-path="url(#clip0_317_1360)"><path d="M22.017 11.35l-11.44-4.16a.52.52 0 00-.66.681l2.08 5.2a.52.52 0 00.29.29l3.352 1.327-9.528 5.294 2.575-2.575a.52.52 0 00.153-.369V3.518a.52.52 0 00-.326-.482l-5.2-2.08a.52.52 0 00-.713.483v20.8c0 .014.01.027.012.041a.51.51 0 00.068.228c.021.026.045.05.07.072a.5.5 0 00.104.104l5.2 3.12a.52.52 0 00.54 0l13.52-8.32a.52.52 0 00.245-.446v-5.2a.52.52 0 00-.342-.488z" fill="#009688"/></g><defs><clipPath id="clip0_317_1360"><path fill="#fff" transform="translate(0 .92)" d="M0 0h24.96v24.96H0z"/></clipPath></defs></svg>