<svg width="25" height="25" fill="none" xmlns="http://www.w3.org/2000/svg"><path d="M22.99 20.117a11.323 11.323 0 00-2.44-3.618 11.373 11.373 0 00-3.618-2.44l-.036-.015A7.507 7.507 0 0012.5.45a7.507 7.507 0 00-7.508 7.51 7.502 7.502 0 003.112 6.088l-.036.015a11.274 11.274 0 00-3.618 2.44 11.372 11.372 0 00-2.44 3.618 11.253 11.253 0 00-.893 4.18.242.242 0 00.242.249h1.817a.242.242 0 00.242-.236 9.026 9.026 0 012.658-6.185 9.022 9.022 0 016.424-2.661c2.428 0 4.708.944 6.424 2.66a9.025 9.025 0 012.658 6.186.24.24 0 00.242.236h1.817a.242.242 0 00.242-.248 11.281 11.281 0 00-.893-4.184zM12.5 13.166a5.173 5.173 0 01-3.68-1.526 5.173 5.173 0 01-1.527-3.68c0-1.39.542-2.697 1.526-3.681A5.173 5.173 0 0112.5 2.752c1.39 0 2.697.542 3.681 1.526a5.173 5.173 0 011.526 3.681c0 1.39-.542 2.697-1.526 3.681a5.173 5.173 0 01-3.68 1.526z" fill="#5B85F1" stroke="#5B85F1" stroke-width=".358"/></svg>