<svg width="26" height="26" fill="none" xmlns="http://www.w3.org/2000/svg"><g clip-path="url(#clip0_317_1286)" fill-rule="evenodd" clip-rule="evenodd"><path d="M11.48 12.383a3.577 3.577 0 01-2.403.923 3.575 3.575 0 01-2.404-.923 3.591 3.591 0 01-3.307 3.307c.574.636.923 1.48.923 2.404 0 .924-.35 1.767-.923 2.404a3.591 3.591 0 013.307 3.307 3.577 3.577 0 012.404-.924c.924 0 1.767.35 2.404.924a3.591 3.591 0 013.307-3.307 3.577 3.577 0 01-.924-2.404c0-.925.35-1.768.924-2.404a3.591 3.591 0 01-3.307-3.307zm-3.235-.216l-2.362-1.818-.393 2.954a5.95 5.95 0 00-1.193 1.189l-2.955.384 1.81 2.367a5.948 5.948 0 00-.002 1.684L1.332 21.29l2.954.393c.334.446.732.85 1.188 1.193l.385 2.955 2.367-1.81c.565.08 1.132.08 1.684.001l2.363 1.819.393-2.956a5.949 5.949 0 001.191-1.187l2.955-.385-1.81-2.367a5.95 5.95 0 00.002-1.684l1.818-2.361-2.954-.394a5.953 5.953 0 00-1.189-1.192l-.384-2.955-2.367 1.81a5.95 5.95 0 00-1.683-.002z" fill="#AB4207"/><path d="M11.48 12.383a3.578 3.578 0 01-2.404.924 3.58 3.58 0 01-2.404-.924 3.591 3.591 0 01-3.307 3.307 3.58 3.58 0 01.924 2.404c0 .925-.35 1.768-.924 2.404a3.591 3.591 0 013.307 3.307 3.578 3.578 0 012.404-.923c.925 0 1.768.35 2.404.923a3.591 3.591 0 013.307-3.307 3.577 3.577 0 01-.923-2.404c0-.924.35-1.767.923-2.404a3.591 3.591 0 01-3.307-3.307z" fill="#AB4207"/><path d="M11.193 13.067a3.149 3.149 0 01-2.116.813 3.149 3.149 0 01-2.116-.813 3.161 3.161 0 01-2.911 2.91 3.15 3.15 0 01.813 2.117 3.15 3.15 0 01-.813 2.116 3.161 3.161 0 012.91 2.91 3.15 3.15 0 012.117-.812 3.15 3.15 0 012.116.813 3.161 3.161 0 012.91-2.911 3.149 3.149 0 01-.812-2.116c0-.814.307-1.556.813-2.116a3.161 3.161 0 01-2.911-2.911z" fill="#FCCA00"/><path d="M21.413 8.803a2.146 2.146 0 01-1.443.554c-.555 0-1.06-.21-1.442-.554a2.155 2.155 0 01-1.984 1.984 2.152 2.152 0 010 2.885 2.155 2.155 0 011.984 1.984 2.147 2.147 0 011.442-.554c.555 0 1.06.21 1.443.554a2.155 2.155 0 011.984-1.984 2.146 2.146 0 01-.554-1.443c0-.554.21-1.06.554-1.442a2.155 2.155 0 01-1.984-1.984zm-1.942-.13l-1.417-1.09-.236 1.772c-.269.2-.51.439-.716.713l-1.774.23 1.087 1.42c-.05.34-.048.68-.002 1.011l-1.09 1.417 1.772.236c.2.268.44.51.713.716l.23 1.773 1.421-1.086c.34.049.68.048 1.01 0l1.418 1.092.236-1.774c.268-.2.51-.438.715-.712l1.773-.23-1.086-1.42a3.53 3.53 0 000-1.011l1.092-1.417-1.773-.236a3.57 3.57 0 00-.713-.716l-.23-1.773-1.42 1.087a3.569 3.569 0 00-1.01-.002z" fill="#AB4207"/><path d="M21.41 8.803a2.147 2.147 0 01-1.442.554c-.555 0-1.06-.21-1.442-.554a2.155 2.155 0 01-1.985 1.984 2.148 2.148 0 010 2.885c1.06.08 1.905.925 1.985 1.984a2.146 2.146 0 011.442-.554c.555 0 1.06.21 1.442.554a2.155 2.155 0 011.985-1.984 2.146 2.146 0 01-.554-1.443c0-.554.21-1.06.554-1.442a2.155 2.155 0 01-1.985-1.984z" fill="#AB4207"/><path d="M21.24 9.213a1.89 1.89 0 01-1.27.488 1.89 1.89 0 01-1.27-.488 1.897 1.897 0 01-1.746 1.747c.303.336.487.781.487 1.27 0 .488-.184.933-.487 1.27.932.07 1.676.813 1.746 1.746a1.89 1.89 0 011.27-.488c.488 0 .933.185 1.27.488a1.897 1.897 0 011.746-1.747 1.89 1.89 0 01-.488-1.27c0-.488.185-.933.488-1.27a1.897 1.897 0 01-1.747-1.746z" fill="#FCCA00"/><path d="M13.872 2.1a2.147 2.147 0 01-1.442.554c-.555 0-1.06-.21-1.443-.554a2.155 2.155 0 01-1.984 1.984c.344.382.554.888.554 1.443s-.21 1.06-.554 1.442c1.06.08 1.905.925 1.984 1.984A2.146 2.146 0 0112.43 8.4c.554 0 1.06.21 1.442.554a2.155 2.155 0 011.984-1.984 2.146 2.146 0 01-.554-1.442c0-.555.21-1.06.554-1.443A2.155 2.155 0 0113.872 2.1zm-1.942-.13L10.513.88l-.236 1.772c-.268.2-.51.44-.716.713l-1.773.231 1.086 1.42a3.57 3.57 0 00-.001 1.01l-1.09 1.418 1.772.236c.2.267.439.51.713.715l.23 1.773 1.42-1.086c.34.049.68.048 1.01.001l1.418 1.091.237-1.773a3.6 3.6 0 00.714-.713l1.773-.23-1.086-1.42c.05-.34.048-.68.001-1.01l1.091-1.418-1.772-.236a3.57 3.57 0 00-.713-.715L14.36.886l-1.42 1.086a3.57 3.57 0 00-1.01-.001z" fill="#AB4207"/><path d="M13.871 2.1a2.146 2.146 0 01-1.442.554c-.555 0-1.06-.21-1.442-.554a2.155 2.155 0 01-1.985 1.984c.345.382.555.888.555 1.443 0 .554-.21 1.06-.555 1.442 1.06.08 1.905.925 1.985 1.984a2.147 2.147 0 011.442-.554c.555 0 1.06.21 1.442.554a2.155 2.155 0 011.985-1.984 2.147 2.147 0 01-.554-1.442c0-.555.21-1.06.554-1.443A2.155 2.155 0 0113.87 2.1z" fill="#AB4207"/><path d="M13.698 2.51a1.89 1.89 0 01-1.27.488 1.89 1.89 0 01-1.269-.487 1.897 1.897 0 01-1.746 1.746c.303.336.487.782.487 1.27s-.184.933-.487 1.27c.932.07 1.676.814 1.746 1.746a1.89 1.89 0 011.27-.488c.488 0 .933.185 1.27.488a1.897 1.897 0 011.746-1.747 1.89 1.89 0 01-.488-1.27c0-.487.185-.933.488-1.269a1.897 1.897 0 01-1.747-1.746z" fill="#FCCA00"/></g><defs><clipPath id="clip0_317_1286"><path fill="#fff" transform="translate(.5 .88)" d="M0 0h24.96v24.96H0z"/></clipPath></defs></svg>