<svg width="25" height="25" fill="none" xmlns="http://www.w3.org/2000/svg"><g clip-path="url(#clip0_317_1352)"><path d="M21.305 3.655A12.399 12.399 0 0012.48 0a12.399 12.399 0 00-8.825 3.655A12.399 12.399 0 000 12.48a12.4 12.4 0 003.655 8.825 12.399 12.399 0 008.825 3.655 12.4 12.4 0 008.825-3.655 12.399 12.399 0 003.655-8.825c0-3.334-1.298-6.468-3.655-8.825zM12.48 1.463c2.943 0 5.71 1.146 7.79 3.226a11.081 11.081 0 011.7 2.185h-9.49a5.616 5.616 0 00-5.477 4.407L3.786 5.71c.278-.355.58-.696.904-1.02a10.945 10.945 0 017.79-3.227zm4.144 11.017a4.148 4.148 0 01-4.144 4.144 4.148 4.148 0 01-4.144-4.144 4.148 4.148 0 014.144-4.144 4.148 4.148 0 014.144 4.144zm-15.161 0c0-1.929.492-3.782 1.417-5.415l4.71 8.157a5.61 5.61 0 006.59 2.6l-3.216 5.572a10.934 10.934 0 01-6.275-3.123 10.945 10.945 0 01-3.227-7.791zm18.808 7.79a10.943 10.943 0 01-7.678 3.226l4.71-8.158.015-.028a5.593 5.593 0 00-1.066-6.973h6.442c.527 1.298.803 2.7.803 4.143 0 2.943-1.145 5.71-3.227 7.79z" fill="#000"/></g><defs><clipPath id="clip0_317_1352"><path fill="#fff" d="M0 0h24.96v24.96H0z"/></clipPath></defs></svg>