<svg width="170" height="161" fill="none" xmlns="http://www.w3.org/2000/svg"><path d="M85 160.561c46.944 0 85-35.818 85-80 0-44.183-38.056-80-85-80s-85 35.817-85 80c0 44.182 38.056 80 85 80z" fill="#777"/><path d="M85 143.418c36.884 0 66.785-28.142 66.785-62.857s-29.901-62.857-66.786-62.857c-36.885 0-66.786 28.142-66.786 62.857S48.114 143.418 85 143.418z" fill="#F3F6FA"/><path d="M78.93 29.133h12.144V80.56H78.93V29.133z" fill="#777"/><path d="M119.337 103.155l-10.303 9.697-29.192-27.468 10.304-9.698 29.191 27.469z" fill="#777"/><path d="M85 91.989c6.706 0 12.142-5.117 12.142-11.43 0-6.31-5.436-11.428-12.142-11.428-6.707 0-12.143 5.117-12.143 11.429S78.293 91.988 85 91.988z" fill="#777"/></svg>