<svg width="25" height="25" viewBox="0 0 25 25" fill="none" xmlns="http://www.w3.org/2000/svg">
<path d="M14.3013 10.6988C13.3457 9.74362 12.0499 9.20703 10.6987 9.20703C9.3476 9.20703 8.05177 9.74362 7.09618 10.6988L3.49247 14.3014C2.53686 15.257 2 16.5531 2 17.9045C2 19.2559 2.53686 20.552 3.49247 21.5076C4.44807 22.4632 5.74416 23.0001 7.0956 23.0001C8.44703 23.0001 9.74312 22.4632 10.6987 21.5076L12.5 19.7064" stroke="#8D8D8D" stroke-width="2.23993" stroke-linecap="round" stroke-linejoin="round"/>
<path d="M10.6992 14.3013C11.6548 15.2565 12.9506 15.7931 14.3018 15.7931C15.6529 15.7931 16.9487 15.2565 17.9043 14.3013L21.508 10.6987C22.4636 9.74312 23.0005 8.44703 23.0005 7.0956C23.0005 5.74416 22.4636 4.44807 21.508 3.49247C20.5524 2.53686 19.2563 2 17.9049 2C16.5535 2 15.2574 2.53686 14.3018 3.49247L12.5005 5.29374" stroke="#8D8D8D" stroke-width="2.23993" stroke-linecap="round" stroke-linejoin="round"/>
</svg>
