<svg width="60" height="61" fill="none" xmlns="http://www.w3.org/2000/svg"><circle cx="30" cy="30.061" r="30" fill="#5662F6"/><path d="M44.03 17.295c-2.55-1.15-5.282-2-8.14-2.483a.125.125 0 00-.132.06 22.66 22.66 0 00-1.014 2.05 30.944 30.944 0 00-9.144 0 20.625 20.625 0 00-1.029-2.05.129.129 0 00-.131-.064 33.3 33.3 0 00-8.142 2.485.117.117 0 00-.053.045c-5.187 7.625-6.608 15.06-5.91 22.404a.133.133 0 00.052.091 33.384 33.384 0 009.988 4.967.13.13 0 00.14-.044 23.055 23.055 0 002.043-3.271.124.124 0 00-.068-.173 21.996 21.996 0 01-3.12-1.464.125.125 0 01-.014-.208c.21-.155.42-.317.62-.478a.125.125 0 01.13-.017c6.545 2.94 13.633 2.94 20.102 0a.124.124 0 01.131.015c.2.163.409.325.62.48a.125.125 0 01-.01.208 20.572 20.572 0 01-3.121 1.462.124.124 0 00-.083.124.12.12 0 00.014.05 26.142 26.142 0 002.042 3.27.13.13 0 00.14.047 33.271 33.271 0 0010.003-4.968.126.126 0 00.053-.09c.834-8.49-1.396-15.865-5.914-22.402a.1.1 0 00-.052-.046zM23.537 35.27c-1.97 0-3.595-1.781-3.595-3.966 0-2.187 1.594-3.967 3.595-3.967 2.017 0 3.627 1.795 3.595 3.967 0 2.186-1.593 3.966-3.595 3.966zm13.292 0c-1.972 0-3.595-1.781-3.595-3.966 0-2.187 1.591-3.967 3.595-3.967 2.016 0 3.626 1.795 3.595 3.967 0 2.186-1.577 3.966-3.595 3.966z" fill="#fff"/></svg>