<svg width="26" height="25" fill="none" xmlns="http://www.w3.org/2000/svg"><g clip-path="url(#clip0_317_1372)" fill="#000"><path d="M13.12 24.96a.52.52 0 01-.51-.62l.734-3.678a.51.51 0 01.143-.266l8.09-8.089a1.563 1.563 0 012.205 0l1.47 1.47a1.561 1.561 0 010 2.207l-8.089 8.089a.517.517 0 01-.266.142l-3.676.735a.547.547 0 01-.101.01zm1.215-3.94l-.552 2.756 2.758-.551 7.977-7.978a.52.52 0 000-.735l-1.47-1.47a.52.52 0 00-.735 0l-7.978 7.977zm2.461 2.684h.01-.01zM10.63 21.84H3.35a2.602 2.602 0 01-2.6-2.6V5.72c0-1.434 1.166-2.6 2.6-2.6h2.08a.52.52 0 010 1.04H3.35c-.86 0-1.56.7-1.56 1.56v13.52c0 .86.7 1.56 1.56 1.56h7.28a.52.52 0 010 1.04zm7.28-9.36a.52.52 0 01-.52-.52V5.72c0-.86-.7-1.56-1.56-1.56h-2.08a.52.52 0 010-1.04h2.08c1.434 0 2.6 1.166 2.6 2.6v6.24a.52.52 0 01-.52.52z"/><path d="M12.71 6.24H6.47c-.86 0-1.56-.7-1.56-1.56V2.6a.52.52 0 01.52-.52h1.61A2.604 2.604 0 019.59 0c1.256 0 2.307.894 2.548 2.08h1.612a.52.52 0 01.52.52v2.08c0 .86-.7 1.56-1.56 1.56zM5.95 3.12v1.56c0 .286.233.52.52.52h6.24c.285 0 .52-.234.52-.52V3.12h-1.56a.52.52 0 01-.52-.52c0-.86-.7-1.56-1.56-1.56-.86 0-1.56.7-1.56 1.56a.52.52 0 01-.52.52H5.95zm8.84 6.24H4.39a.52.52 0 010-1.04h10.4a.52.52 0 010 1.04zm0 3.12H4.39a.52.52 0 010-1.04h10.4a.52.52 0 010 1.04zm0 3.12H4.39a.52.52 0 010-1.04h10.4a.52.52 0 010 1.04z"/></g><defs><clipPath id="clip0_317_1372"><path fill="#fff" transform="translate(.75)" d="M0 0h24.96v24.96H0z"/></clipPath></defs></svg>