<svg width="60" height="61" fill="none" xmlns="http://www.w3.org/2000/svg"><circle cx="30" cy="30.061" r="30" fill="#336"/><path d="M26.25 28.866L10.968 43.065A4.959 4.959 0 0110 40.09V19.647a4.956 4.956 0 01.734-2.639L26.25 28.866z" fill="#EDEDED"/><path d="M49.265 17.087L33.748 28.925l-1.584 1.208c-1.304 1.004-3.029 1.004-4.333 0l-1.584-1.208L10.73 17.068c.781-1.256 2.064-2.005 3.434-2.007H45.83c1.377-.008 2.665.752 3.434 2.026z" fill="#F8F8F8"/><path d="M49.032 43.388c-.79 1.059-1.963 1.672-3.2 1.672H14.165c-1.236 0-2.409-.613-3.2-1.672l15.284-14.2 1.583 1.209c1.304 1.003 3.03 1.003 4.334 0l1.583-1.208 15.283 14.199z" fill="#D5D5D5"/><path d="M50 19.649v20.444a4.96 4.96 0 01-.966 2.973L33.75 28.867l15.517-11.839c.48.77.736 1.684.733 2.62z" fill="#EDEDED"/></svg>