<svg width="25" height="26" fill="none" xmlns="http://www.w3.org/2000/svg"><g clip-path="url(#clip0_317_1355)"><path d="M5.532 16.044l-.869 3.243-3.175.067A12.424 12.424 0 010 13.44c0-2.07.504-4.02 1.396-5.74l2.828.519 1.238 2.81c-.26.756-.4 1.567-.4 2.411 0 .916.166 1.794.47 2.604z" fill="#FBBB00"/><path d="M24.742 11.108c.143.755.218 1.535.218 2.332a12.478 12.478 0 01-4.667 9.732l-3.562-.182-.504-3.146a7.438 7.438 0 003.2-3.798h-6.673v-4.938h11.988z" fill="#5B85F1"/><path d="M20.292 23.172h.001a12.427 12.427 0 01-7.813 2.748 12.478 12.478 0 01-10.993-6.565l4.045-3.311a7.42 7.42 0 0010.695 3.8l4.065 3.328z" fill="#28B446"/><path d="M20.447 3.833l-4.043 3.31a7.423 7.423 0 00-10.941 3.886L1.397 7.701A12.478 12.478 0 0112.48.96c3.028 0 5.804 1.079 7.966 2.873z" fill="#F14336"/></g><defs><clipPath id="clip0_317_1355"><path fill="#fff" transform="translate(0 .96)" d="M0 0h24.96v24.96H0z"/></clipPath></defs></svg>