<svg width="26" height="26" fill="none" xmlns="http://www.w3.org/2000/svg"><g clip-path="url(#clip0_317_1338)"><path d="M1.81 2.618C-.15 4.655.25 6.82.25 13.395c0 5.46-.952 10.933 4.034 12.222 1.557.4 15.351.4 16.906-.002 2.076-.536 3.765-2.22 3.996-5.156.032-.41.032-13.712-.001-14.13-.246-3.127-2.17-4.93-4.707-5.295C19.895.95 19.78.925 16.796.92 6.217.925 3.897.454 1.811 2.618z" fill="url(#paint0_linear_317_1338)"/><path d="M12.727 4.184c-3.776 0-7.362-.336-8.731 3.18-.566 1.451-.484 3.337-.484 6.037 0 2.369-.076 4.595.484 6.036 1.366 3.517 4.981 3.18 8.73 3.18 3.615 0 7.344.377 8.73-3.18.567-1.467.484-3.324.484-6.036 0-3.6.198-5.925-1.548-7.67-1.768-1.768-4.159-1.547-7.669-1.547h.004zm-.825 1.661c7.877-.012 8.88-.888 8.326 11.277-.197 4.302-3.473 3.83-7.5 3.83-7.342 0-7.553-.21-7.553-7.556 0-7.43.582-7.547 6.727-7.553v.002zm5.745 1.53a1.106 1.106 0 100 2.211 1.106 1.106 0 000-2.211zm-4.92 1.293a4.733 4.733 0 10.002 9.465 4.733 4.733 0 00-.002-9.465zm0 1.66c4.062 0 4.067 6.145 0 6.145-4.06 0-4.066-6.144 0-6.144z" fill="#fff"/></g><defs><linearGradient id="paint0_linear_317_1338" x1="1.858" y1="24.286" x2="25.056" y2="4.208" gradientUnits="userSpaceOnUse"><stop stop-color="#FD5"/><stop offset=".5" stop-color="#FF543E"/><stop offset="1" stop-color="#C837AB"/></linearGradient><clipPath id="clip0_317_1338"><path fill="#fff" transform="translate(.25 .92)" d="M0 0h24.96v24.96H0z"/></clipPath></defs></svg>