<svg width="26" height="25" fill="none" xmlns="http://www.w3.org/2000/svg"><g clip-path="url(#clip0_317_1325)" fill="#000"><path d="M22.176 5.245l-.586-.586L17.5.569l-.332-.333A.803.803 0 0016.597 0H4.107c-.51 0-1.06.394-1.06 1.26V24.1c0 .36.362.71.79.82.022.007.044.015.066.02.067.013.135.02.204.02h17.246c.069 0 .137-.007.204-.02.023-.005.044-.013.066-.02.428-.11.79-.46.79-.82V6.014c0-.33-.04-.574-.237-.77zm-4.927-3.71l3.63 3.63h-3.63v-3.63zM4.107 24.098a.246.246 0 01-.085-.02.198.198 0 01-.114-.179v-6.256h17.644V23.9c0 .08-.047.146-.114.178-.027.01-.054.021-.085.021H4.107zm-.199-7.316V1.26c0-.093.014-.398.2-.398h12.305a.663.663 0 00-.025.168v4.9a1.28 1.28 0 00-.86-.336.43.43 0 100 .861.43.43 0 01.43.43v1.722c0 .516.233.975.594 1.29a1.711 1.711 0 00-.594 1.292v1.721a.43.43 0 01-.43.43.43.43 0 100 .861c.711 0 1.29-.579 1.29-1.29v-1.722a.86.86 0 01.861-.86.43.43 0 100-.861.862.862 0 01-.86-.861V6.886c0-.332-.13-.632-.336-.861h4.9c.059 0 .115-.01.17-.025v10.783H3.908z"/><path d="M7.288 22.132c-.008.192-.073.33-.197.41-.123.08-.29.12-.497.12-.082 0-.17-.01-.265-.03a3.5 3.5 0 01-.27-.067 2.637 2.637 0 01-.239-.082.882.882 0 01-.168-.085l-.3.476c.08.059.175.112.289.159.114.047.232.089.356.126a2.56 2.56 0 00.662.11c.172 0 .34-.018.503-.05.162-.034.307-.093.432-.177a.917.917 0 00.3-.336 1.08 1.08 0 00.112-.514v-3.378h-.718v3.318zm3.757-1.018a2.325 2.325 0 00-.439-.25 5.508 5.508 0 01-.435-.211 1.32 1.32 0 01-.336-.253.532.532 0 01-.088-.577.635.635 0 01.13-.185.776.776 0 01.188-.139.6.6 0 01.224-.067c.141-.012.257-.014.347-.006.09.008.163.021.218.041.055.02.097.04.126.06.03.019.056.034.08.046a3.976 3.976 0 00.106-.192l.088-.17c.032-.06.06-.116.082-.168a1.2 1.2 0 00-.447-.162 3.087 3.087 0 00-.547-.05 1.53 1.53 0 00-.503.083 1.266 1.266 0 00-.418.238 1.135 1.135 0 00-.392.892.97.97 0 00.135.53c.09.14.204.263.342.367a2.7 2.7 0 00.44.27c.157.077.304.153.44.23.135.076.247.162.338.256.09.094.135.208.135.341 0 .22-.064.386-.191.497-.128.112-.312.168-.55.168-.08 0-.163-.008-.253-.024a2.562 2.562 0 01-.271-.062 4.87 4.87 0 01-.262-.082 1.26 1.26 0 01-.208-.091L9 22.95a.933.933 0 00.238.15c.093.041.19.074.292.097.102.024.203.04.303.05.1.01.197.015.291.015.22 0 .416-.033.588-.1a1.31 1.31 0 00.436-.268c.118-.111.209-.241.274-.388.064-.146.097-.299.097-.456 0-.231-.045-.42-.135-.567a1.28 1.28 0 00-.34-.369zm4.213-1.717a1.636 1.636 0 00-.57-.421 1.747 1.747 0 00-.715-.145c-.259 0-.497.048-.715.145a1.636 1.636 0 00-.57.42 1.971 1.971 0 00-.383.692 3.047 3.047 0 00-.139.961c0 .365.047.687.139.965.092.279.22.51.382.695.163.184.353.323.57.417.219.095.457.141.716.141.258 0 .497-.046.714-.14a1.62 1.62 0 00.571-.418c.163-.185.29-.416.383-.695.092-.278.138-.6.138-.965 0-.364-.046-.685-.138-.961a1.975 1.975 0 00-.383-.691zm-.291 2.42c-.06.21-.14.38-.244.51a.92.92 0 01-.353.28c-.131.056-.27.084-.415.084a.921.921 0 01-.403-.09.94.94 0 01-.341-.29c-.1-.13-.18-.3-.236-.508a3.044 3.044 0 01-.091-.754 2.98 2.98 0 01.094-.764c.06-.208.14-.378.244-.51a.889.889 0 01.353-.279c.131-.055.27-.082.415-.082.141 0 .276.03.403.088a.903.903 0 01.341.289c.1.133.179.303.236.509.057.206.087.456.091.75a3.02 3.02 0 01-.094.768zm4.225.074l-1.7-2.989h-.719v4.336h.718V20.25l1.7 2.988h.718v-4.336h-.717v2.99zM9.073 8.607V6.885a.43.43 0 01.43-.43.43.43 0 100-.86c-.712 0-1.291.578-1.291 1.29v1.722c0 .474-.386.86-.86.86a.43.43 0 100 .861c.474 0 .86.386.86.86v1.722c0 .712.58 1.291 1.291 1.291a.43.43 0 100-.86.43.43 0 01-.43-.43v-1.722a1.71 1.71 0 00-.595-1.291 1.71 1.71 0 00.595-1.291zm3.442.43a.646.646 0 100-1.29.646.646 0 000 1.29zm0 1.722a.43.43 0 00-.43.43v1.291a.43.43 0 10.86 0v-1.29a.43.43 0 00-.43-.431z"/></g><defs><clipPath id="clip0_317_1325"><path fill="#fff" transform="translate(.25)" d="M0 0h24.96v24.96H0z"/></clipPath></defs></svg>