<svg width="26" height="26" fill="none" xmlns="http://www.w3.org/2000/svg"><g clip-path="url(#clip0_317_1383)"><path d="M23.214 13.4c0 6.892 0 12.48-9.984 12.48-9.985 0-9.984-5.588-9.984-12.48C3.246 6.507 8.238.92 13.23.92s9.984 5.587 9.984 12.48z" fill="#088CD2"/><path d="M19.885 15.48c0 4.825 0 8.736-6.656 8.736s-6.656-3.911-6.656-8.736c0-4.825 3.328-8.736 6.656-8.736s6.656 3.911 6.656 8.736z" fill="#fff"/><path d="M19.053 15.48c0 4.365 0 7.904-5.824 7.904s-5.824-3.54-5.824-7.904c0-4.366 2.912-7.904 5.824-7.904s5.824 3.538 5.824 7.904z" fill="#82C60D"/></g><defs><clipPath id="clip0_317_1383"><path fill="#fff" transform="translate(.75 .92)" d="M0 0h24.96v24.96H0z"/></clipPath></defs></svg>