<svg width="353" height="77" fill="none" xmlns="http://www.w3.org/2000/svg"><path d="M0 4.316C0 1.944 0 .758.748.23c.747-.528 1.806-.091 3.923.784l6.398 2.644c1.043.43 1.565.646 1.86 1.098.294.452.294 1.036.294 2.205v55.072H0V4.316z" fill="url(#paint0_linear_278_1273)"/><path d="M7.19 26.764c-1.288 0-2.112 1.428-1.507 2.612l5.222 10.217c.296.58.876.942 1.506.942h30.583V26.764H7.19z" fill="url(#paint1_linear_278_1273)"/><path d="M45.646 4.316c0-2.372 0-3.558-.748-4.087-.748-.528-1.806-.091-3.923.784l-6.399 2.644c-1.043.43-1.564.646-1.859 1.098-.294.452-.294 1.036-.294 2.205v55.072h13.223V4.316z" fill="url(#paint2_linear_278_1273)"/><path d="M69.102 23.856c0-2.754 0-4.131-.858-4.643-.858-.512-1.998.184-4.28 1.578l-6.398 3.907c-.824.502-1.235.754-1.461 1.164-.226.41-.226.907-.226 1.901v34.225h13.223V23.856z" fill="url(#paint3_linear_278_1273)"/><path d="M56.395 12.693c0-1.034 0-1.552.234-1.98.233-.429.66-.694 1.513-1.224l5.034-3.128c2.403-1.493 3.605-2.24 4.512-1.703.906.536.906 1.993.906 4.908v3.232c0 1.046 0 1.568-.237 2-.238.431-.671.695-1.538 1.222l-5.033 3.063c-2.394 1.457-3.591 2.185-4.491 1.648-.9-.538-.9-1.982-.9-4.87v-3.168z" fill="url(#paint4_linear_278_1273)"/><path d="M110.05 10.347c0-2.296 0-3.444-.723-3.975-.724-.53-1.762-.144-3.837.628l-6.399 2.38c-1.094.408-1.641.612-1.953 1.072-.311.46-.311 1.066-.311 2.276v49.26h13.223V10.347z" fill="url(#paint5_linear_278_1273)"/><path d="M86.89 5.305c-3.42 0-5.13 0-5.892 1.169-.762 1.17-.13 2.824 1.135 6.133l.102.267c.622 1.627.933 2.44 1.583 2.9.651.46 1.492.46 3.173.46h32.494c3.59 0 5.385 0 6.14-1.226.756-1.226.008-2.926-1.486-6.325l-.118-.267c-.664-1.51-.996-2.266-1.628-2.689-.632-.422-1.43-.422-3.026-.422H86.889z" fill="url(#paint6_linear_278_1273)"/><path d="M127.456 31.863c0-1.472 1.145-2.666 2.559-2.666h15.441c1.414 0 2.56 1.194 2.56 2.666v3.554c0 1.472-1.146 2.665-2.56 2.665h-15.441c-1.414 0-2.559-1.193-2.559-2.665v-3.554z" fill="#5B85F1"/><path d="M177.415.683c5.349 0 9.807 1.857 13.373 5.57 3.62 3.714 5.43 8.329 5.43 13.843 0 5.458-1.81 10.073-5.43 13.843-3.566 3.714-8.024 5.57-13.373 5.57h-11.589v20.258h-9.321V.683h20.91zm0 29.71c2.756 0 5.025-.956 6.808-2.87 1.783-1.969 2.675-4.445 2.675-7.427 0-2.982-.892-5.43-2.675-7.343-1.783-1.97-4.052-2.955-6.808-2.955h-11.589v20.596h11.589zm34.289-5.739c2.215-5.233 6.375-7.85 12.481-7.85v9.876c-3.35-.225-6.268.619-8.753 2.532-2.485 1.857-3.728 4.952-3.728 9.285v21.27h-8.753V17.564h8.753v7.09zm36.175 36.21c-5.943 0-10.995-2.138-15.155-6.415-4.161-4.276-6.241-9.538-6.241-15.784s2.08-11.507 6.241-15.784c4.16-4.276 9.212-6.414 15.155-6.414 5.998 0 11.05 2.138 15.156 6.415 4.16 4.276 6.24 9.537 6.24 15.783 0 6.246-2.08 11.508-6.24 15.784-4.106 4.277-9.158 6.415-15.156 6.415zm-8.996-12.66c2.432 2.532 5.43 3.798 8.996 3.798 3.566 0 6.565-1.267 8.996-3.799 2.432-2.532 3.647-5.711 3.647-9.538 0-3.826-1.215-7.005-3.647-9.537-2.431-2.533-5.43-3.799-8.996-3.799-3.566 0-6.564 1.266-8.996 3.799-2.431 2.532-3.647 5.711-3.647 9.537 0 3.827 1.216 7.006 3.647 9.538zm71.606 11.563h-10.131l-10.049-14.434-10.131 14.434h-10.212l15.237-21.692-14.426-20.511h10.13l9.321 13.336 9.32-13.336h10.212l-14.426 20.595 15.155 21.608zm33.191-42.203H353l-15.561 43.553c-3.89 10.917-10.482 16.094-19.775 15.531v-8.525c2.756.169 4.971-.45 6.646-1.857 1.675-1.35 3.053-3.489 4.133-6.415l.405-.844-17.181-41.443h9.563l12.076 30.64 10.374-30.64z" fill="#606368"/><defs><linearGradient id="paint0_linear_278_1273" x1="6.612" y1="0" x2="6.612" y2="62.032" gradientUnits="userSpaceOnUse"><stop stop-color="#214AAA"/><stop offset="1" stop-color="#5A85F3"/></linearGradient><linearGradient id="paint1_linear_278_1273" x1="5.481" y1="33.649" x2="42.994" y2="33.649" gradientUnits="userSpaceOnUse"><stop stop-color="#214AAA"/><stop offset="1" stop-color="#5A85F3"/></linearGradient><linearGradient id="paint2_linear_278_1273" x1="39.034" y1="0" x2="39.034" y2="62.032" gradientUnits="userSpaceOnUse"><stop stop-color="#214AAA"/><stop offset="1" stop-color="#5A85F3"/></linearGradient><linearGradient id="paint3_linear_278_1273" x1="62.491" y1="19.045" x2="62.491" y2="61.988" gradientUnits="userSpaceOnUse"><stop stop-color="#214AAA"/><stop offset="1" stop-color="#5A85F3"/></linearGradient><linearGradient id="paint4_linear_278_1273" x1="62.495" y1="4.484" x2="62.495" y2="20.907" gradientUnits="userSpaceOnUse"><stop stop-color="#214AAA"/><stop offset="1" stop-color="#5A85F3"/></linearGradient><linearGradient id="paint5_linear_278_1273" x1="103.439" y1="6.127" x2="103.439" y2="61.988" gradientUnits="userSpaceOnUse"><stop stop-color="#214AAA"/><stop offset="1" stop-color="#5A85F3"/></linearGradient><linearGradient id="paint6_linear_278_1273" x1="80.668" y1="10.769" x2="125.923" y2="10.769" gradientUnits="userSpaceOnUse"><stop stop-color="#214AAA"/><stop offset="1" stop-color="#5A85F3"/></linearGradient></defs></svg>