<svg width="192" height="41" fill="none" xmlns="http://www.w3.org/2000/svg"><path d="M0 2.564C0 1.331 0 .714.405.44.81.165 1.383.392 2.529.847L5.994 2.22c.564.225.847.337 1.006.572.16.235.16.538.16 1.146V32.57H0V2.564z" fill="url(#paint0_linear_230_1750)"/><path d="M3.893 14.232a.924.924 0 00-.816 1.358l2.827 5.313c.16.301.475.49.816.49h16.56v-7.16H3.893z" fill="url(#paint1_linear_230_1750)"/><path d="M24.715 2.564c0-1.233 0-1.85-.404-2.124-.405-.275-.978-.048-2.125.407L18.722 2.22c-.565.225-.847.337-1.007.572-.16.235-.16.538-.16 1.146V32.57h7.16V2.564z" fill="url(#paint2_linear_230_1750)"/><path d="M37.416 12.723c0-1.432 0-2.148-.464-2.414-.465-.266-1.082.096-2.318.82l-3.464 2.032c-.446.26-.669.392-.791.605-.122.213-.122.472-.122.988v17.794h7.16V12.723z" fill="url(#paint3_linear_230_1750)"/><path d="M30.536 6.918c0-.538 0-.807.126-1.03.127-.222.358-.36.82-.636l2.725-1.626c1.302-.776 1.952-1.164 2.443-.885.492.278.492 1.036.492 2.551v1.68c0 .544 0 .816-.13 1.04-.128.225-.363.362-.832.636l-2.725 1.592c-1.297.758-1.945 1.136-2.432.857-.487-.28-.487-1.03-.487-2.532V6.918z" fill="url(#paint4_linear_230_1750)"/><path d="M59.588 5.699c0-1.194 0-1.79-.392-2.067-.391-.276-.953-.075-2.077.327l-3.465 1.238c-.592.211-.889.317-1.057.557-.169.239-.169.553-.169 1.183v25.61h7.16V5.7z" fill="url(#paint5_linear_230_1750)"/><path d="M47.048 3.078c-1.852 0-2.778 0-3.19.608-.412.608-.07 1.468.615 3.189l.055.138c.337.846.505 1.269.857 1.508.352.239.808.239 1.718.239h17.594c1.944 0 2.916 0 3.325-.637.409-.637.004-1.521-.805-3.289l-.064-.138c-.36-.786-.54-1.179-.881-1.398-.342-.22-.774-.22-1.639-.22H47.048z" fill="url(#paint6_linear_230_1750)"/><path d="M69.013 16.889c0-.766.62-1.386 1.385-1.386h8.361c.766 0 1.386.62 1.386 1.386v1.847c0 .766-.62 1.386-1.386 1.386H70.4c-.766 0-1.386-.62-1.386-1.386V16.89z" fill="#5B85F1"/><path d="M96.064.675c2.896 0 5.31.965 7.241 2.896 1.96 1.931 2.94 4.33 2.94 7.197 0 2.838-.98 5.237-2.94 7.197-1.931 1.93-4.345 2.896-7.24 2.896h-6.276v10.532h-5.047V.675h11.322zm0 15.447c1.492 0 2.72-.498 3.686-1.492.966-1.024 1.448-2.312 1.448-3.862 0-1.55-.482-2.823-1.448-3.818-.965-1.024-2.194-1.536-3.686-1.536H89.79v10.708h6.275zm18.566-2.984c1.2-2.721 3.452-4.081 6.758-4.081v5.134c-1.814-.117-3.393.322-4.739 1.316-1.346.966-2.019 2.575-2.019 4.827v11.06h-4.739V9.45h4.739v3.687zm19.588 18.826c-3.218 0-5.954-1.112-8.206-3.335-2.253-2.224-3.379-4.96-3.379-8.207 0-3.247 1.126-5.982 3.379-8.206 2.252-2.223 4.988-3.335 8.206-3.335 3.247 0 5.983 1.112 8.206 3.335 2.253 2.224 3.379 4.959 3.379 8.206 0 3.248-1.126 5.983-3.379 8.206-2.223 2.224-4.959 3.336-8.206 3.336zm-4.871-6.583c1.316 1.317 2.94 1.975 4.871 1.975 1.931 0 3.554-.658 4.871-1.975 1.316-1.316 1.975-2.97 1.975-4.959 0-1.99-.659-3.642-1.975-4.959-1.317-1.316-2.94-1.974-4.871-1.974-1.931 0-3.555.658-4.871 1.974-1.317 1.317-1.975 2.97-1.975 4.96 0 1.989.658 3.642 1.975 4.958zm38.772 6.012h-5.486l-5.441-7.504-5.486 7.504h-5.529l8.25-11.278-7.811-10.664h5.485l5.047 6.934 5.046-6.934h5.53l-7.811 10.708 8.206 11.234zM186.09 9.451h5.047l-8.426 22.644c-2.106 5.676-5.675 8.367-10.707 8.075v-4.432c1.492.087 2.691-.234 3.598-.966.907-.702 1.653-1.814 2.238-3.335l.22-.439-9.304-21.547h5.179l6.538 15.93 5.617-15.93z" fill="#606368"/><defs><linearGradient id="paint0_linear_230_1750" x1="3.58" y1=".32" x2="3.58" y2="32.571" gradientUnits="userSpaceOnUse"><stop stop-color="#214AAA"/><stop offset="1" stop-color="#5A85F3"/></linearGradient><linearGradient id="paint1_linear_230_1750" x1="2.967" y1="17.812" x2="23.28" y2="17.812" gradientUnits="userSpaceOnUse"><stop stop-color="#214AAA"/><stop offset="1" stop-color="#5A85F3"/></linearGradient><linearGradient id="paint2_linear_230_1750" x1="21.136" y1=".32" x2="21.136" y2="32.571" gradientUnits="userSpaceOnUse"><stop stop-color="#214AAA"/><stop offset="1" stop-color="#5A85F3"/></linearGradient><linearGradient id="paint3_linear_230_1750" x1="33.837" y1="10.222" x2="33.837" y2="32.548" gradientUnits="userSpaceOnUse"><stop stop-color="#214AAA"/><stop offset="1" stop-color="#5A85F3"/></linearGradient><linearGradient id="paint4_linear_230_1750" x1="33.839" y1="2.65" x2="33.839" y2="11.189" gradientUnits="userSpaceOnUse"><stop stop-color="#214AAA"/><stop offset="1" stop-color="#5A85F3"/></linearGradient><linearGradient id="paint5_linear_230_1750" x1="56.008" y1="3.505" x2="56.008" y2="32.548" gradientUnits="userSpaceOnUse"><stop stop-color="#214AAA"/><stop offset="1" stop-color="#5A85F3"/></linearGradient><linearGradient id="paint6_linear_230_1750" x1="43.679" y1="5.919" x2="68.183" y2="5.919" gradientUnits="userSpaceOnUse"><stop stop-color="#214AAA"/><stop offset="1" stop-color="#5A85F3"/></linearGradient></defs></svg>