<svg width="26" height="25" fill="none" xmlns="http://www.w3.org/2000/svg"><g clip-path="url(#clip0_317_1275)" fill="#000"><path d="M4.262 11.434H7.96a.488.488 0 000-.974H4.262a.488.488 0 000 .974zm0 2.34h4.022a.488.488 0 000-.975H4.262a.487.487 0 100 .975zm6.033 0a.489.489 0 00.345-.832.491.491 0 00-.69 0 .49.49 0 00.345.832zm4.54-3.146a4.295 4.295 0 004.29-4.29 4.295 4.295 0 00-4.29-4.29 4.295 4.295 0 00-4.29 4.29 4.295 4.295 0 004.29 4.29zm0-7.605a3.319 3.319 0 013.315 3.315 3.319 3.319 0 01-3.315 3.315 3.319 3.319 0 01-3.315-3.315 3.319 3.319 0 013.315-3.315z"/><path d="M24.198 13.364l-.59-.59V6.142a2.44 2.44 0 00-2.437-2.438h-.572A6.347 6.347 0 0014.835 0 6.346 6.346 0 009.07 3.704H3.718A2.44 2.44 0 001.28 6.142v12.285a2.44 2.44 0 002.438 2.438h6.287v1.17a2.44 2.44 0 00-2.39 2.438c0 .269.218.487.488.487h8.68a.487.487 0 00.487-.488 2.44 2.44 0 00-2.39-2.436v-1.171h6.291a2.44 2.44 0 002.438-2.438v-2.346a1.655 1.655 0 00.59-2.718zm-3.027-8.685c.806 0 1.463.656 1.463 1.463v5.657l-2.305-2.305a6.32 6.32 0 00.623-4.815h.219zM14.835.975a5.369 5.369 0 015.362 5.363 5.369 5.369 0 01-5.362 5.362 5.369 5.369 0 01-5.363-5.362A5.369 5.369 0 0114.835.975zM3.717 4.679h5a6.322 6.322 0 00.034 3.44h-4.49a.487.487 0 100 .975h4.866a6.346 6.346 0 005.707 3.582 6.298 6.298 0 003.156-.844l3.87 3.87c.216.216.482.365.773.436v.437H2.255V6.142c0-.807.656-1.463 1.463-1.463zm12.494 19.306H8.674a1.465 1.465 0 011.379-.975h4.78c.635 0 1.178.407 1.379.975zm-2.307-1.95H10.98v-1.17h2.925v1.17zm7.266-2.145H3.718a1.464 1.464 0 01-1.463-1.463v-.877h20.379v.877c0 .807-.657 1.463-1.463 1.463zm2.338-4.878a.679.679 0 01-.96 0l-3.74-3.741c.352-.285.674-.606.958-.96l3.742 3.742a.679.679 0 010 .959z"/><path d="M14.835 5.119a1.22 1.22 0 011.218 1.219.488.488 0 00.975 0c0-1.21-.984-2.194-2.193-2.194a.488.488 0 000 .975z"/></g><defs><clipPath id="clip0_317_1275"><path fill="#fff" transform="translate(.5)" d="M0 0h24.96v24.96H0z"/></clipPath></defs></svg>