<svg width="24" height="26" fill="none" xmlns="http://www.w3.org/2000/svg"><path d="M22.873 20.666a11.322 11.322 0 00-2.44-3.618 11.373 11.373 0 00-3.618-2.44l-.036-.015A7.506 7.506 0 0012.383 1a7.507 7.507 0 00-7.508 7.508 7.502 7.502 0 003.112 6.088l-.036.015a11.273 11.273 0 00-3.618 2.44 11.37 11.37 0 00-2.44 3.618A11.252 11.252 0 001 24.849a.242.242 0 00.242.249H3.06a.242.242 0 00.242-.236 9.025 9.025 0 012.658-6.185 9.022 9.022 0 016.424-2.661c2.428 0 4.707.944 6.424 2.66a9.025 9.025 0 012.658 6.186.24.24 0 00.242.236h1.816a.243.243 0 00.243-.249 11.281 11.281 0 00-.893-4.183v0zm-10.49-6.951a5.173 5.173 0 01-3.681-1.526 5.173 5.173 0 01-1.526-3.681 5.17 5.17 0 011.526-3.681 5.173 5.173 0 013.68-1.526c1.39 0 2.698.542 3.682 1.526a5.173 5.173 0 011.526 3.68c0 1.39-.542 2.698-1.526 3.682a5.173 5.173 0 01-3.681 1.526z" fill="#5B85F1" stroke="#5B85F1" stroke-width=".358"/></svg>