<svg width="24" height="18" fill="none" xmlns="http://www.w3.org/2000/svg"><g clip-path="url(#clip0_280_1274)"><mask id="a" style="mask-type:alpha" maskUnits="userSpaceOnUse" x="0" y="0" width="24" height="18"><path d="M21.714 0H2.286A2.286 2.286 0 000 2.286v12.571a2.286 2.286 0 002.286 2.286h19.428A2.286 2.286 0 0024 14.857V2.286A2.286 2.286 0 0021.714 0z" fill="#fff"/></mask><g mask="url(#a)"><path d="M21.714 0H2.286A2.286 2.286 0 000 2.286v12.571a2.286 2.286 0 002.286 2.286h19.428A2.286 2.286 0 0024 14.857V2.286A2.286 2.286 0 0021.714 0z" fill="#0034A9"/><path fill-rule="evenodd" clip-rule="evenodd" d="M0 11.429h24v5.714H0v-5.714z" fill="#D7280F"/><path fill-rule="evenodd" clip-rule="evenodd" d="M0 0h24v5.714H0V0z" fill="#fff"/><path d="M21.714.571H2.286C1.339.571.57 1.34.57 2.286v12.571c0 .947.768 1.714 1.715 1.714h19.428c.947 0 1.714-.767 1.714-1.714V2.286c0-.947-.767-1.715-1.714-1.715z" stroke="#000" stroke-opacity=".1"/></g></g><defs><clipPath id="clip0_280_1274"><path fill="#fff" d="M0 0h24v17.143H0z"/></clipPath></defs></svg>