<svg width="26" height="26" fill="none" xmlns="http://www.w3.org/2000/svg"><g clip-path="url(#clip0_317_1380)"><path d="M13.23 25.92c6.892 0 12.48-5.588 12.48-12.48C25.71 6.547 20.122.96 13.23.96 6.337.96.75 6.547.75 13.44c0 6.893 5.587 12.48 12.48 12.48z" fill="#039BE5"/><path d="M6.46 13.17l12.034-4.64c.558-.202 1.046.136.865.98h.001l-2.049 9.652c-.152.684-.558.85-1.127.528l-3.12-2.3-1.505 1.45c-.166.167-.307.307-.63.307l.222-3.175 5.783-5.224c.251-.221-.056-.346-.388-.126l-7.146 4.5-3.08-.961c-.67-.213-.684-.67.14-.992z" fill="#fff"/></g><defs><clipPath id="clip0_317_1380"><path fill="#fff" transform="translate(.75 .96)" d="M0 0h24.96v24.96H0z"/></clipPath></defs></svg>