<svg width="60" height="61" fill="none" xmlns="http://www.w3.org/2000/svg"><path d="M30 60.06c16.569 0 30-13.43 30-30 0-16.568-13.431-30-30-30-16.569 0-30 13.432-30 30 0 16.57 13.431 30 30 30z" fill="url(#paint0_linear_277_964)"/><path fill-rule="evenodd" clip-rule="evenodd" d="M13.58 29.744c8.745-3.81 14.577-6.323 17.495-7.536 8.332-3.466 10.063-4.067 11.191-4.087.248-.005.803.057 1.163.348.303.247.386.58.426.813.04.233.09.765.05 1.18-.45 4.744-2.404 16.256-3.398 21.57-.42 2.247-1.249 3.001-2.05 3.075-1.743.16-3.066-1.151-4.753-2.258-2.64-1.73-4.132-2.808-6.695-4.497-2.962-1.951-1.042-3.024.646-4.777.442-.46 8.118-7.441 8.267-8.075.018-.079.035-.374-.14-.53-.175-.156-.434-.103-.621-.06-.265.06-4.483 2.848-12.654 8.364-1.198.822-2.282 1.222-3.254 1.201-1.07-.023-3.131-.605-4.663-1.103-1.879-.61-3.372-.934-3.242-1.97.068-.541.812-1.094 2.232-1.658z" fill="#fff"/><defs><linearGradient id="paint0_linear_277_964" x1="30" y1=".061" x2="30" y2="59.615" gradientUnits="userSpaceOnUse"><stop stop-color="#2AABEE"/><stop offset="1" stop-color="#229ED9"/></linearGradient></defs></svg>