<svg width="24" height="18" fill="none" xmlns="http://www.w3.org/2000/svg"><g clip-path="url(#clip0_280_1281)"><mask id="a" style="mask-type:alpha" maskUnits="userSpaceOnUse" x="0" y="0" width="24" height="18"><path d="M21.714 0H2.286A2.286 2.286 0 000 2.286v12.571a2.286 2.286 0 002.286 2.286h19.428A2.286 2.286 0 0024 14.857V2.286A2.286 2.286 0 0021.714 0z" fill="#fff"/></mask><g mask="url(#a)"><path d="M21.714 0H2.286A2.286 2.286 0 000 2.286v12.571a2.286 2.286 0 002.286 2.286h19.428A2.286 2.286 0 0024 14.857V2.286A2.286 2.286 0 0021.714 0z" fill="#fff"/><path fill-rule="evenodd" clip-rule="evenodd" d="M0 0h10.286v8H0V0z" fill="#444379"/><path fill-rule="evenodd" clip-rule="evenodd" d="M1.143 1.143v1.142h1.143V1.143H1.143zm2.286 0v1.142H4.57V1.143H3.43zm2.285 0v1.142h1.143V1.143H5.714zm2.286 0v1.142h1.143V1.143H8zM6.857 2.285v1.143H8V2.285H6.857zm-2.286 0v1.143h1.143V2.285H4.571zm-2.285 0v1.143h1.143V2.285H2.286zM1.143 3.428v1.143h1.143V3.428H1.143zm2.286 0v1.143H4.57V3.428H3.43zm2.285 0v1.143h1.143V3.428H5.714zm2.286 0v1.143h1.143V3.428H8zM1.143 5.714v1.143h1.143V5.714H1.143zm2.286 0v1.143H4.57V5.714H3.43zm2.285 0v1.143h1.143V5.714H5.714zm2.286 0v1.143h1.143V5.714H8zM6.857 4.571v1.143H8V4.571H6.857zm-2.286 0v1.143h1.143V4.571H4.571zm-2.285 0v1.143h1.143V4.571H2.286z" fill="#A7B6E7"/><path fill-rule="evenodd" clip-rule="evenodd" d="M10.286 0v1.143H24V0H10.286zm0 2.286v1.143H24V2.286H10.286zm0 2.285v1.143H24V4.571H10.286zm0 2.286V8H24V6.857H10.286zM0 9.143v1.143h24V9.143H0zm0 2.286v1.142h24V11.43H0zm0 2.285v1.143h24v-1.143H0zM0 16v1.143h24V16H0z" fill="#ED4C49"/><path d="M21.714.571H2.286C1.339.571.572 1.34.572 2.286v12.571c0 .947.767 1.714 1.714 1.714h19.428c.947 0 1.715-.767 1.715-1.714V2.286c0-.947-.768-1.715-1.715-1.715z" stroke="#000" stroke-opacity=".1"/></g></g><defs><clipPath id="clip0_280_1281"><path fill="#fff" d="M0 0h24v17.143H0z"/></clipPath></defs></svg>