<svg width="76" height="56" fill="none" xmlns="http://www.w3.org/2000/svg"><path d="M63.566 4.961c.621 0 1.218.242 1.657.671.44.43.687 1.013.687 1.62v34.376H9.66V7.253c0-.608.247-1.19.686-1.62a2.371 2.371 0 011.657-.672h51.563zM12.003.378a7.113 7.113 0 00-4.971 2.014 6.798 6.798 0 00-2.06 4.86v38.96h65.625V7.251c0-1.822-.74-3.571-2.06-4.86a7.113 7.113 0 00-4.97-2.013H12.003zM.285 48.503h75a6.797 6.797 0 01-2.06 4.861 7.113 7.113 0 01-4.972 2.014H7.316a7.113 7.113 0 01-4.972-2.014 6.798 6.798 0 01-2.06-4.861z" fill="#fff"/></svg>