<svg width="76" height="76" fill="none" xmlns="http://www.w3.org/2000/svg"><path fill-rule="evenodd" clip-rule="evenodd" d="M15.46 18.915c-3.042 0-5.96 1.58-8.11 4.393-2.152 2.814-3.36 6.629-3.36 10.607v10c0 3.978 1.208 7.794 3.36 10.607 2.15 2.813 5.068 4.393 8.11 4.393s5.96-1.58 8.111-4.393c2.151-2.813 3.36-6.629 3.36-10.607h22.941v10h7.647v-10h3.824v10h7.647v-20H26.93c0-3.978-1.208-7.793-3.359-10.607-2.151-2.813-5.069-4.393-8.11-4.393zm3.824 25v-10c0-1.326-.403-2.598-1.12-3.535-.717-.938-1.69-1.465-2.704-1.465-1.014 0-1.986.527-2.703 1.465-.717.937-1.12 2.209-1.12 3.535v10c0 1.326.402 2.598 1.12 3.536.717.937 1.69 1.464 2.703 1.464 1.014 0 1.987-.527 2.704-1.464.717-.938 1.12-2.21 1.12-3.536z" fill="#fff"/></svg>