<svg width="25" height="26" fill="none" xmlns="http://www.w3.org/2000/svg"><g clip-path="url(#clip0_317_1362)"><path d="M24.953 5.326l-4.985-.015c-.001.181-.002.398-.005.54.424.01 1.508.21 1.848 1.102l-4.776 11.022c-.233-.547-2.454-5.48-2.708-6.115l2.31-4.79c.476-.729 1.388-1.199 2.27-1.233l-.003-.5-4.796-.005c-.011.127 0 .394-.017.526 1.353.037 1.836.34 1.512 1.148a108.565 108.565 0 01-1.877 3.94c-.686-1.435-1.122-2.54-1.87-4.09-.322-.719.39-.998 1.142-1.02v-.503l-5.554-.018c.004.237-.006.37-.006.543.774.012 1.78.094 2.18.768.531 1.035 2.302 5.141 2.838 6.24-.683 1.313-2.344 4.415-2.939 5.58-.852-1.892-4.004-9.34-4.895-11.263-.332-.82.95-1.292 1.691-1.327l.005-.547H0c.001.164.007.435.007.556 1.025-.01 2.523 1.674 2.95 2.72 1.844 4.28 3.747 8.534 5.582 12.817 0 .007.575.015.581.002 1.2-2.457 2.604-5.04 3.87-7.525l3.197 7.529c.002 0 .53.004.533.002 2.027-4.633 5.064-11.74 6.057-13.984.404-.96 1.08-1.544 2.175-1.577l.008-.498-.007-.025z" fill="#000"/></g><defs><clipPath id="clip0_317_1362"><path fill="#fff" transform="translate(0 .88)" d="M0 0h24.96v24.96H0z"/></clipPath></defs></svg>