<svg width="26" height="26" fill="none" xmlns="http://www.w3.org/2000/svg"><g clip-path="url(#clip0_317_1284)"><path d="M18.22.92h-3.546C11.08.92 7.456 3.573 7.456 9.5c0 3.07 1.3 5.461 3.686 6.821l-4.366 7.902c-.207.374-.212.798-.014 1.133.193.328.546.524.945.524h2.208c.502 0 .893-.243 1.08-.667l4.094-8.007h.298v7.676c0 .541.457.998.997.998h1.93c.605 0 1.028-.423 1.028-1.029V2.012c0-.643-.461-1.092-1.122-1.092zm-2.833 12.73h-.527c-2.043 0-3.263-1.668-3.263-4.462 0-3.474 1.541-4.712 2.983-4.712h.807v9.174z" fill="#D7143A"/></g><defs><clipPath id="clip0_317_1284"><path fill="#fff" transform="translate(.5 .92)" d="M0 0h24.96v24.96H0z"/></clipPath></defs></svg>