<svg width="26" height="26" fill="none" xmlns="http://www.w3.org/2000/svg"><g clip-path="url(#clip0_317_1335)"><path d="M24.696 7.448a3.127 3.127 0 00-2.2-2.2c-1.953-.534-9.766-.534-9.766-.534s-7.813 0-9.766.514a3.191 3.191 0 00-2.2 2.22C.25 9.401.25 13.452.25 13.452s0 4.07.514 6.003a3.128 3.128 0 002.2 2.2c1.974.535 9.766.535 9.766.535s7.813 0 9.766-.514a3.127 3.127 0 002.2-2.2c.514-1.953.514-6.003.514-6.003s.02-4.072-.514-6.025z" fill="red"/><path d="M10.241 17.193l6.497-3.742-6.497-3.742v7.484z" fill="#fff"/></g><defs><clipPath id="clip0_317_1335"><path fill="#fff" transform="translate(.25 .96)" d="M0 0h24.96v24.96H0z"/></clipPath></defs></svg>