<svg width="30" height="30" fill="none" xmlns="http://www.w3.org/2000/svg"><g clip-path="url(#clip0)"><path d="M29.994 15.09c0-8.336-6.715-15.093-14.998-15.093C6.71 0-.006 6.754-.006 15.091c0 7.53 5.486 13.774 12.655 14.906V19.452H8.843V15.09h3.81v-3.328c0-3.781 2.24-5.87 5.665-5.87 1.642 0 3.358.295 3.358.295V9.9h-1.892c-1.861 0-2.443 1.164-2.443 2.358v2.831H21.5l-.664 4.36H17.34v10.546c7.169-1.132 12.654-7.375 12.654-14.906z" fill="#14C4D8"/></g><defs><clipPath id="clip0"><path fill="#fff" d="M0 0h30v30H0z"/></clipPath></defs></svg>