<svg width="16" height="16" fill="none" xmlns="http://www.w3.org/2000/svg"><path d="M15.292 12.973l-2.115 2.098c-.312.32-.726.428-1.13.429-1.781-.053-3.466-.929-4.849-1.828-2.27-1.651-4.353-3.7-5.66-6.174C1.035 6.46.447 5.136.503 3.978c.005-.436.122-.864.43-1.145L3.047.72c.439-.373.864-.244 1.145.191l1.701 3.226a.937.937 0 01-.19 1.065l-.78.779a.383.383 0 00-.08.223c.3 1.156 1.205 2.222 2.004 2.956.8.733 1.66 1.727 2.775 1.962.138.039.307.052.405-.04l.907-.921c.312-.237.763-.353 1.097-.16h.016l3.069 1.813c.45.282.497.828.175 1.16z" fill="#262626"/></svg>