<svg width="30" height="30" fill="none" xmlns="http://www.w3.org/2000/svg"><circle cx="15" cy="15" r="15" fill="#14C4D8"/><path d="M15.27 8.607a1.962 1.962 0 011.96 1.96 1.96 1.96 0 01-3.92 0 1.962 1.962 0 011.96-1.96zm0 6.689a4.737 4.737 0 004.734-4.73 4.737 4.737 0 00-4.733-4.733 4.734 4.734 0 00-4.73 4.734 4.733 4.733 0 004.73 4.729zm1.915 3.86a8.92 8.92 0 002.748-1.139 1.388 1.388 0 00-1.479-2.346 6.012 6.012 0 01-6.37 0 1.386 1.386 0 00-1.475 2.346 8.943 8.943 0 002.748 1.14L10.71 21.8a1.387 1.387 0 101.963 1.96l2.598-2.598 2.6 2.598a1.387 1.387 0 001.96-1.96l-2.646-2.643z" fill="#D0F3F7"/></svg>