<svg width="148" height="51" fill="none" xmlns="http://www.w3.org/2000/svg"><path fill-rule="evenodd" clip-rule="evenodd" d="M20.142 32.097l-.013-.016.007.017h.006z" fill="#4A4A4A"/><path fill-rule="evenodd" clip-rule="evenodd" d="M25.774 3.878S26.742.204 24.03.204c-2.713 0-6.521 2.227-6.521 2.227s6.993-1.114 8.265 1.447zM20.11 20.884c.068-.37.14-.73.2-1.113l.037-.24.221-.099c.66-.29 5.79-1.494 7.188-1.858.002-.074-.356-1.987-.356-1.987-1.808-.033-5.266 1.057-6.097 1.405l-.67.278.066-.73c.142-1.602.23-2.97.283-4.15-4.32-.617-6.78 1.332-6.838 1.281 0 0 1.287 3.372-2.726 8.47 2.495-.906 6.002-1.21 8.692-1.257zm-9.761 5.97c-1.63 5.398-4.183 9.204-4.183 9.204s2.113-1.32 2.127-1.33l.03-.02.052-.037.17-.112.033-.02.055-.034.042-.026.104-.06.037-.023.144-.08.09-.047.056-.03.044-.022.158-.08.047-.02.164-.078.043-.02.064-.028.051-.023.06-.025.053-.023.058-.024.17-.07a9.21 9.21 0 01.174-.068l.058-.022.06-.023.056-.02.063-.024.061-.022.06-.02.06-.022.063-.022.058-.02.065-.022.066-.022.06-.02.066-.02.06-.02.063-.02.065-.02.064-.02.065-.02.066-.02.065-.019.069-.02.063-.018.072-.02.06-.018.076-.02.059-.017.077-.02.058-.016.082-.022.054-.014.088-.023.05-.013.139-.034.08-.02.059-.014.091-.022.05-.012.093-.022.047-.01.094-.022.048-.01c.033-.008.066-.016.1-.022l.043-.01.144-.03.097-.02.048-.01c.033-.008.067-.016.101-.022l.044-.01.097-.019.049-.01.107-.02.04-.008.111-.02.036-.008.114-.02.033-.007.112-.02.037-.007.113-.02.035-.006.11-.02.04-.006.116-.02.033-.005.122-.02.029-.005.128-.02a.415.415 0 01.022-.003l.13-.02.021-.004.125-.018.026-.004.132-.02.02-.002.135-.02.017-.002.131-.018.02-.003.131-.017.022-.003.133-.017.019-.003.25-.03a53.331 53.331 0 003.233-8.912c.103-.394.194-.815.287-1.232-3.235.095-7.184 1.003-8.782 1.618a26.501 26.501 0 01-.707 2.996z" fill="#FF5451"/><path fill-rule="evenodd" clip-rule="evenodd" d="M21.755 6.383c.03.22.064.522.093.91.048.635.085 1.508.079 2.686a63.15 63.15 0 01-.073 2.567 93.704 93.704 0 01-.22 3.362c.73-.265 1.474-.487 2.229-.665 3.227-.766 6.579-.815 8.467-.598a8.29 8.29 0 00.367-.925c.25-.76.48-1.82.386-2.99-.115-1.417-.707-2.995-2.324-4.398-.801-.694-3.728-.69-8.701.01l-.303.041zm1.98 12.935c-1.06.284-1.972.581-2.598.837-.04.248-.09.48-.133.723-.083.46-.167.917-.262 1.357-.108.502-.22.997-.343 1.467a53.99 53.99 0 01-3.713 9.946c1.524-1.254 5.424-2.712 8.256-3.356l1.852-.286c2.98-.388 6-.446 8.014-.166 1.67-4.653 1.184-8.532-1.413-11.234-.03-.03-.056-.06-.08-.083-2.456-.682-6.61 0-9.58.795z" fill="#FF5451"/><path fill-rule="evenodd" clip-rule="evenodd" d="M21.513 48.328a18.41 18.41 0 01-7.04-1.404c3.65-.187 7.355-.19 8.955.356 1.334-1.27-4.343-1.22-9.74-.694a18.93 18.93 0 01-2.436-1.36c7.47-.942 15.57-1.369 20.586-.04a18.55 18.55 0 01-10.325 3.142zm13.95-11.23c.324-2.232 1.648-4.862 1.864-4.935l2.464-3.222 4.344-5.057.206-.89-.87.843c-.255.243-.555.527-.904.852l-2.318 2.095c-3.553 3.12-8.71 7.21-12.493 8.383-1.938.601-9.836 1.718-11.297 1.93-1.461.213-1.19-1.633-1.19-1.633l-7.313 1.634s-1.315 2.374-.719 2.374H8.98l.575 4.504A19.272 19.272 0 012.63 29.142c0-10.419 8.221-18.906 18.416-19.16a32.9 32.9 0 00-.08-2.683C9.357 7.595 0 17.276 0 29.142a21.962 21.962 0 007.138 16.246c.048.043.098.085.146.13l.254.222c.572.498 1.176.954 1.797 1.39.073.05.149.097.223.147C12.98 49.617 17.086 51 21.513 51c4.976 0 9.56-1.73 13.209-4.624.047.03.1.057.146.088.058-.109.086-.207.132-.31a21.955 21.955 0 008.025-17.012c0-.894-.072-1.77-.176-2.636l-2.466 3.088a19.253 19.253 0 01-6.049 13.592 4.964 4.964 0 00-1.208-.62c1.17-.91 1.94-2.727 2.338-5.468" fill="#FF5451"/><path fill-rule="evenodd" clip-rule="evenodd" d="M40.07 25.741l2.283-1.894c-1.263-5.12-4.28-9.54-8.396-12.517a9.228 9.228 0 01-.538 2.94 19.246 19.246 0 016.652 11.471m21.057-2.134c.68.655 1.5 1.168 2.454 1.54.956.372 2.018.558 3.184.558a8.96 8.96 0 002.57-.366 7.401 7.401 0 002.32-1.174V18.09H66.62v1.837c0 .171.058.312.175.424.117.113.28.17.486.17h1.4v2.181a5.945 5.945 0 01-.938.316c-.32.08-.68.118-1.075.118-.6.008-1.196-.1-1.754-.32a3.753 3.753 0 01-1.36-.934 4.202 4.202 0 01-.88-1.5c-.208-.594-.312-1.272-.312-2.035 0-.69.094-1.319.283-1.882.17-.53.441-1.021.801-1.446.346-.4.776-.72 1.26-.934a4.035 4.035 0 011.661-.33c.33 0 .628.016.894.05a4.46 4.46 0 011.464.438c.23.116.474.252.733.41.273.171.526.231.763.178a.919.919 0 00.58-.424l.951-1.473a6.558 6.558 0 00-2.172-1.38 8.024 8.024 0 00-1.434-.407A8.849 8.849 0 0066.484 11c-1.14 0-2.172.182-3.096.544a6.792 6.792 0 00-2.362 1.52 6.674 6.674 0 00-1.502 2.326c-.35.898-.524 1.885-.524 2.958 0 1.053.185 2.03.554 2.928.37.898.894 1.676 1.574 2.33v.001zm17.404-7.64c.097-.25.2-.546.306-.888.107-.343.212-.714.316-1.116.11.395.22.762.33 1.101.11.34.214.633.31.884l1.304 3.94h-3.87l1.304-3.92zm-3.28 9.2a1.2 1.2 0 00.383-.5l.836-2.507h5.385l.836 2.508c.09.21.223.384.4.518.173.136.403.203.69.203h2.545L80.845 11h-3.363L72 25.39h2.566c.272 0 .5-.075.685-.224v.001zm21.282-2.445h-5.25V11H88v14.39h8.534v-2.668zm10 0h-5.25V11H98v14.39h8.534v-2.668zm10.583.1h-5.812v-3.427h4.45v-2.47h-4.45v-3.358h5.812V11H108v14.39h9.117v-2.57zm11.963-2.544a4.088 4.088 0 01-.782 1.447c-.34.395-.757.696-1.25.904-.492.207-1.052.31-1.68.31-.635 0-1.2-.103-1.697-.31a3.321 3.321 0 01-1.253-.904 4.09 4.09 0 01-.783-1.447c-.182-.569-.272-1.213-.272-1.93 0-.71.09-1.352.272-1.92a4.08 4.08 0 01.783-1.448 3.376 3.376 0 011.253-.908c.496-.21 1.062-.317 1.697-.317.628 0 1.188.106 1.68.317.493.21.91.513 1.25.908.34.395.6.877.783 1.447.18.57.272 1.21.272 1.92 0 .718-.091 1.362-.272 1.931h-.001zm3.106.973c.353-.895.53-1.863.53-2.903a7.824 7.824 0 00-.53-2.894 6.958 6.958 0 00-1.492-2.33 6.933 6.933 0 00-2.318-1.556c-.904-.379-1.907-.568-3.008-.568-1.103 0-2.107.188-3.014.563a6.935 6.935 0 00-2.328 1.551 6.935 6.935 0 00-1.496 2.33 7.835 7.835 0 00-.53 2.904c0 1.04.176 2.008.53 2.903a6.975 6.975 0 001.496 2.336 6.887 6.887 0 002.328 1.555c.907.376 1.911.563 3.014.563 1.101 0 2.104-.187 3.008-.563a6.823 6.823 0 002.318-1.555 7.01 7.01 0 001.492-2.336zm12.281-2.637c.003.514.029 1.028.077 1.54l-6.725-8.64a2.526 2.526 0 00-.244-.267.852.852 0 00-.485-.228 2.885 2.885 0 00-.36-.019H135v14.39h2.896v-7.714c0-.21-.007-.436-.02-.677-.013-.24-.029-.485-.048-.735l6.678 8.572c.168.204.338.347.51.43.171.082.384.123.637.123h1.71V11h-2.896v7.614zM67.024 36.72c-.132.412-.32.762-.566 1.047-.246.286-.556.51-.905.655a3.122 3.122 0 01-1.218.225c-.46 0-.87-.075-1.228-.225a2.411 2.411 0 01-.908-.655 2.956 2.956 0 01-.567-1.047 4.593 4.593 0 01-.197-1.398c0-.516.066-.98.197-1.39.132-.414.32-.763.567-1.049.246-.286.55-.506.908-.658a3.13 3.13 0 011.228-.229c.455 0 .86.077 1.218.23.356.151.658.371.905.657.246.286.434.635.566 1.048.131.412.197.875.197 1.39 0 .52-.066.986-.197 1.4zm1.17-5.18a5.03 5.03 0 00-1.68-1.128c-.655-.274-1.38-.41-2.179-.41-.798 0-1.525.135-2.182.407a4.983 4.983 0 00-1.685 1.122 4.99 4.99 0 00-1.084 1.688A5.68 5.68 0 0059 35.32c0 .753.128 1.454.384 2.102a5.03 5.03 0 001.084 1.69c.467.48 1.028.856 1.685 1.128.657.27 1.384.407 2.182.407s1.524-.136 2.18-.407a4.953 4.953 0 001.678-1.127c.47-.485.837-1.06 1.08-1.69.255-.65.383-1.35.383-2.103a5.65 5.65 0 00-.384-2.096 5.027 5.027 0 00-1.08-1.687l.001.001zM71 40.42h2.394v-4.056h3.504v-1.866h-3.504V31.86h4.208V30H71v10.42zm11 0h2.393v-4.056h3.505v-1.866h-3.505V31.86h4.21V30H82v10.42zm16.024-3.7c-.13.411-.32.761-.567 1.046-.246.286-.555.51-.904.655a3.122 3.122 0 01-1.218.225c-.46 0-.87-.075-1.229-.225a2.402 2.402 0 01-.907-.655 2.947 2.947 0 01-.567-1.047 4.616 4.616 0 01-.197-1.398c0-.516.067-.98.197-1.39a2.94 2.94 0 01.567-1.049c.246-.286.55-.506.907-.658.36-.152.77-.229 1.23-.229.454 0 .86.077 1.217.23.357.151.658.371.904.657.247.286.436.635.567 1.048.13.412.197.875.197 1.39 0 .52-.066.986-.197 1.4zm1.17-5.182a5.03 5.03 0 00-1.68-1.127c-.656-.274-1.38-.41-2.179-.41-.798 0-1.525.135-2.182.407a4.992 4.992 0 00-1.686 1.122 5.023 5.023 0 00-1.083 1.688A5.68 5.68 0 0090 35.32c0 .753.128 1.454.384 2.102.245.63.613 1.205 1.083 1.69.468.48 1.03.856 1.686 1.128.657.27 1.384.407 2.182.407s1.523-.136 2.178-.407a4.95 4.95 0 001.68-1.127 5.082 5.082 0 001.08-1.69c.255-.65.384-1.35.384-2.103a5.668 5.668 0 00-.384-2.096 5.056 5.056 0 00-1.08-1.687v.001zm7.846 2.37c-.066.198-.172.37-.317.52-.159.156-.35.274-.56.346-.266.09-.545.132-.826.125h-.958v-3.09h.958c.614 0 1.068.13 1.361.387.294.257.44.614.44 1.072 0 .23-.032.443-.098.64zm.802 2.453a2.084 2.084 0 00-.443-.304c.333-.129.627-.293.883-.493s.472-.428.647-.684c.176-.254.31-.532.398-.832.09-.3.134-.62.134-.958a3.274 3.274 0 00-.225-1.23 2.435 2.435 0 00-.722-.98c-.331-.277-.758-.492-1.28-.647-.524-.155-1.156-.233-1.897-.233H102v10.42h2.379v-3.856h.606c.183 0 .323.03.421.09.1.06.189.154.268.283l1.704 3.025c.173.305.46.458.859.458h2.153l-2.182-3.626a2.11 2.11 0 00-.366-.433zM110 31.917h2.886v8.503h2.38v-8.503h2.885V30H110v1.917zm15.434 4.254c0 .368-.046.695-.138.983-.081.27-.216.52-.398.734-.173.2-.385.354-.636.461-.272.11-.563.165-.856.16-.319 0-.604-.053-.855-.16a1.713 1.713 0 01-.636-.465 2.075 2.075 0 01-.399-.736 3.246 3.246 0 01-.137-.984V30H119v6.171c0 .64.1 1.225.303 1.76.202.534.493.994.873 1.38.38.386.841.686 1.386.901.545.215 1.159.322 1.844.322.68 0 1.293-.107 1.838-.322.52-.2.993-.507 1.386-.902.38-.385.672-.845.876-1.38a4.89 4.89 0 00.306-1.759v-6.17h-2.378v6.17zm11.422-.658c0 .373.019.745.056 1.116l-4.87-6.257a1.923 1.923 0 00-.176-.194.641.641 0 00-.353-.164 1.928 1.928 0 00-.26-.014H130v10.42h2.097v-5.586c0-.163-.005-.327-.014-.49a31.44 31.44 0 00-.034-.532l4.835 6.207c.122.148.245.252.369.311.125.06.278.09.461.09h1.24V30h-2.098v5.513zM141 40.42h6.602v-1.86h-4.21v-2.482h3.224v-1.787h-3.223v-2.43h4.209V30H141v10.42z" fill="#FF5451"/></svg>