<svg width="11" height="9" fill="none" xmlns="http://www.w3.org/2000/svg"><path d="M10.792 2.972c.083-.073.208-.005.208.11v4.793C11 8.496 10.538 9 9.969 9H1.03C.461 9 0 8.496 0 7.875v-4.79c0-.118.122-.183.208-.11.482.407 1.12.925 3.311 2.662.453.36 1.218 1.12 1.981 1.115.767.007 1.547-.768 1.983-1.115C9.674 3.9 10.31 3.38 10.792 2.972zM5.5 6c.498.01 1.216-.684 1.577-.97 2.85-2.257 3.068-2.454 3.725-3.017A.58.58 0 0011 1.57v-.445C11 .504 10.538 0 9.969 0H1.03C.461 0 0 .504 0 1.125v.445c0 .174.073.335.198.443.657.56.874.76 3.725 3.017.361.286 1.079.98 1.577.97z" fill="#EEE"/></svg>