<svg width="10" height="11" fill="none" xmlns="http://www.w3.org/2000/svg"><path d="M9.715 7.773L7.527 6.742a.43.43 0 00-.296-.027.466.466 0 00-.25.175l-.97 1.302c-1.52-.789-2.743-2.135-3.46-3.807L3.734 3.32a.523.523 0 00.16-.276.562.562 0 00-.025-.325L2.932.312a.502.502 0 00-.22-.256.434.434 0 00-.317-.043L.363.529A.466.466 0 00.102.71.549.549 0 000 1.031C0 6.541 4.06 11 9.063 11c.106 0 .209-.04.292-.112a.524.524 0 00.165-.288l.468-2.234a.57.57 0 00-.04-.35.497.497 0 00-.233-.243z" fill="#EEE"/></svg>