<svg width="18" height="18" viewBox="0 0 18 18" fill="none" xmlns="http://www.w3.org/2000/svg">
<path d="M3 11.6254V6.75037C3 5.85526 3.35558 4.99682 3.98851 4.36388C4.62145 3.73095 5.47989 3.37537 6.375 3.37537C7.27011 3.37537 8.12855 3.73095 8.76149 4.36388C9.39442 4.99682 9.75 5.85526 9.75 6.75037V12.0004C9.75 12.4976 9.94754 12.9746 10.2992 13.3262C10.6508 13.6778 11.1277 13.8754 11.625 13.8754C12.1223 13.8754 12.5992 13.6778 12.9508 13.3262C13.3025 12.9746 13.5 12.4976 13.5 12.0004V6.99787C12.9994 6.82094 12.5774 6.47272 12.3087 6.01476C12.04 5.5568 11.9419 5.0186 12.0316 4.49527C12.1214 3.97195 12.3933 3.49721 12.7992 3.15496C13.2052 2.81271 13.719 2.625 14.25 2.625C14.781 2.625 15.2948 2.81271 15.7008 3.15496C16.1067 3.49721 16.3786 3.97195 16.4684 4.49527C16.5581 5.0186 16.46 5.5568 16.1913 6.01476C15.9226 6.47272 15.5006 6.82094 15 6.99787V12.0004C15 12.8955 14.6444 13.7539 14.0115 14.3869C13.3785 15.0198 12.5201 15.3754 11.625 15.3754C10.7299 15.3754 9.87145 15.0198 9.23851 14.3869C8.60558 13.7539 8.25 12.8955 8.25 12.0004V6.75037C8.25 6.25308 8.05246 5.77617 7.70083 5.42454C7.34919 5.07291 6.87228 4.87537 6.375 4.87537C5.87772 4.87537 5.40081 5.07291 5.04917 5.42454C4.69754 5.77617 4.5 6.25308 4.5 6.75037V11.6254H6.75L3.75 15.3754L0.75 11.6254H3ZM14.25 5.62537C14.4489 5.62537 14.6397 5.54635 14.7803 5.4057C14.921 5.26504 15 5.07428 15 4.87537C15 4.67645 14.921 4.48569 14.7803 4.34504C14.6397 4.20438 14.4489 4.12537 14.25 4.12537C14.0511 4.12537 13.8603 4.20438 13.7197 4.34504C13.579 4.48569 13.5 4.67645 13.5 4.87537C13.5 5.07428 13.579 5.26504 13.7197 5.4057C13.8603 5.54635 14.0511 5.62537 14.25 5.62537Z" fill="white"/>
</svg>
