<svg width="14" height="14" fill="none" xmlns="http://www.w3.org/2000/svg"><path d="M13.562 11.476l-1.903 1.888c-.28.288-.653.385-1.016.386-1.604-.048-3.12-.836-4.365-1.645-2.043-1.487-3.918-3.33-5.094-5.557C.732 5.614.203 4.422.254 3.38c.004-.392.11-.777.386-1.03L2.543.448c.395-.337.778-.22 1.03.171l1.532 2.904a.843.843 0 01-.172.958l-.701.701a.344.344 0 00-.072.2c.27 1.041 1.084 2 1.803 2.66.72.661 1.494 1.556 2.498 1.767.124.035.276.047.365-.036l.815-.83c.281-.212.688-.316.988-.142h.014l2.762 1.63c.405.255.448.746.157 1.045z" fill="#262626"/></svg>