<svg width="18" height="18" fill="none" xmlns="http://www.w3.org/2000/svg"><path fill-rule="evenodd" clip-rule="evenodd" d="M9 2.455a6.545 6.545 0 100 13.09 6.545 6.545 0 000-13.09zM1 9a8 8 0 1116 0A8 8 0 011 9z" fill="#262626"/><path fill-rule="evenodd" clip-rule="evenodd" d="M1 9c0-.552.326-1 .727-1h14.546c.401 0 .727.448.727 1s-.326 1-.727 1H1.727C1.326 10 1 9.552 1 9z" fill="#262626"/><path fill-rule="evenodd" clip-rule="evenodd" d="M6.6 8.88c.055 2.27.901 4.455 2.4 6.237 1.499-1.782 2.345-3.967 2.4-6.237-.055-2.27-.901-4.455-2.4-6.237C7.501 4.425 6.655 6.61 6.6 8.88zM9 1.498L8.41 1C6.277 3.154 5.065 5.948 5 8.864v.031c.066 2.916 1.278 5.711 3.41 7.865.15.153.365.24.59.24.225 0 .44-.087.59-.24 2.133-2.154 3.344-4.949 3.41-7.865v-.03C12.934 5.947 11.723 3.153 9.59 1L9 1.498z" fill="#262626"/></svg>