<svg width="20" height="14" viewBox="0 0 20 14" fill="none" xmlns="http://www.w3.org/2000/svg">
<path d="M19.091 2.75862H16.4287C16.104 1.17241 14.8053 0 13.2468 0C11.6884 0 10.3897 1.17241 10.065 2.75862H0.90918V4.13793H10.065C10.3897 5.72414 11.6884 6.89655 13.2468 6.89655C14.8053 6.89655 16.104 5.72414 16.4287 4.13793H19.091V2.75862ZM13.2468 5.51724C12.1429 5.51724 11.2988 4.62069 11.2988 3.44828C11.2988 2.27586 12.1429 1.37931 13.2468 1.37931C14.3507 1.37931 15.1949 2.27586 15.1949 3.44828C15.1949 4.62069 14.3507 5.51724 13.2468 5.51724Z" fill="white"/>
<path d="M0.90918 10.8777H3.57152C3.89619 12.4639 5.19489 13.6364 6.75334 13.6364C8.31178 13.6364 9.61048 12.4639 9.93515 10.8777H19.091V9.49843H9.93515C9.61048 7.91222 8.31178 6.73981 6.75334 6.73981C5.19489 6.73981 3.89619 7.91222 3.57152 9.49843H0.90918V10.8777ZM6.75334 8.11912C7.85723 8.11912 8.70139 9.01567 8.70139 10.1881C8.70139 11.3605 7.85723 12.257 6.75334 12.257C5.64944 12.257 4.80528 11.3605 4.80528 10.1881C4.80528 9.01567 5.64944 8.11912 6.75334 8.11912Z" fill="white"/>
</svg>
