<svg width="30" height="30" fill="none" xmlns="http://www.w3.org/2000/svg"><circle cx="15" cy="15" r="15" fill="#262626"/><path fill-rule="evenodd" clip-rule="evenodd" d="M11.29 6.054C12.25 6.01 12.555 6 15 6c2.445 0 2.75.01 3.71.054.959.043 1.613.196 2.186.418.6.227 1.144.581 1.594 1.04a4.39 4.39 0 011.037 1.592c.223.573.375 1.228.419 2.185.044.961.054 1.267.054 3.711 0 2.445-.01 2.75-.054 3.71-.043.958-.196 1.612-.419 2.185-.226.6-.58 1.145-1.037 1.595-.45.458-.994.811-1.594 1.037-.573.223-1.227.375-2.185.419-.96.044-1.266.054-3.711.054s-2.75-.01-3.71-.054c-.958-.043-1.612-.196-2.185-.419A4.416 4.416 0 017.51 22.49a4.41 4.41 0 01-1.038-1.594c-.222-.573-.374-1.227-.418-2.185C6.01 17.75 6 17.444 6 15c0-2.445.01-2.75.054-3.71.043-.958.196-1.613.418-2.186a4.41 4.41 0 011.04-1.594 4.406 4.406 0 011.592-1.038c.573-.222 1.228-.374 2.185-.418zm7.347 1.62c-.95-.043-1.234-.052-3.637-.052s-2.688.009-3.637.052c-.878.04-1.354.187-1.671.31-.42.164-.72.358-1.035.673a2.78 2.78 0 00-.673 1.035c-.123.317-.27.793-.31 1.671-.043.95-.052 1.234-.052 3.637s.009 2.688.052 3.637c.04.878.187 1.354.31 1.671.144.39.374.745.673 1.035.29.299.644.529 1.035.673.317.124.793.27 1.671.31.95.043 1.233.052 3.637.052s2.688-.009 3.637-.052c.878-.04 1.354-.186 1.671-.31.42-.164.72-.358 1.035-.673a2.78 2.78 0 00.673-1.035c.124-.317.27-.793.31-1.671.043-.95.052-1.234.052-3.637s-.009-2.688-.052-3.637c-.04-.878-.186-1.354-.31-1.671a2.794 2.794 0 00-.673-1.035 2.793 2.793 0 00-1.035-.673c-.317-.123-.793-.27-1.671-.31zm-4.787 10.1a3.002 3.002 0 102.162-5.6 3.001 3.001 0 00-3.885 3.698 3.003 3.003 0 001.723 1.902zm-2.12-6.044a4.626 4.626 0 116.542 6.542 4.626 4.626 0 01-6.542-6.542zm8.923-.666A1.094 1.094 0 1019.15 9.47a1.094 1.094 0 001.502 1.592z" fill="#fff"/></svg>