<svg width="30" height="30" fill="none" xmlns="http://www.w3.org/2000/svg"><circle cx="15" cy="15" r="15" fill="#262626"/><path d="M26.63 9.317c.198.51-.411 1.702-1.828 3.574-.199.255-.454.595-.765 1.021-.652.794-1.02 1.319-1.106 1.574-.142.34-.085.667.17.979.142.17.468.51.978 1.021h.043v.043c1.162 1.05 1.941 1.943 2.338 2.68l.085.17.085.32v.404l-.298.319-.723.149-3.103.085c-.198.028-.432 0-.701-.085a2.997 2.997 0 01-.617-.255l-.255-.17c-.255-.17-.538-.426-.85-.767-.312-.34-.588-.652-.83-.936a4.267 4.267 0 00-.743-.702c-.255-.184-.482-.248-.68-.191a.206.206 0 00-.106.043 1.733 1.733 0 00-.213.19c-.1.1-.184.22-.255.363a2.651 2.651 0 00-.192.617 4.754 4.754 0 00-.084.957c0 .113-.015.22-.043.319a1.39 1.39 0 01-.085.234l-.043.043c-.17.17-.396.255-.68.255h-1.36a4.93 4.93 0 01-1.807-.17 6.57 6.57 0 01-1.594-.66c-.454-.27-.865-.539-1.233-.808a7.462 7.462 0 01-.85-.702l-.298-.298a1.866 1.866 0 01-.34-.34 50.96 50.96 0 01-.871-1.107 27.59 27.59 0 01-1.297-1.83c-.425-.652-.921-1.51-1.488-2.574a41.487 41.487 0 01-1.573-3.297.981.981 0 01-.085-.34c0-.086.014-.157.043-.213l.042-.043c.113-.17.34-.255.68-.255h3.359a.56.56 0 01.255.064l.212.106.043.042c.142.086.24.213.297.383.17.398.362.816.574 1.256.213.44.376.773.49 1l.17.34c.254.482.488.9.7 1.255.213.355.405.631.575.83.17.198.34.354.51.468.17.113.312.17.425.17.113 0 .227-.014.34-.042l.043-.064.148-.277.17-.553.107-.979v-1.531a7.584 7.584 0 00-.128-.873 2.556 2.556 0 00-.17-.574l-.042-.128c-.199-.283-.553-.468-1.063-.553-.085 0-.057-.1.085-.298.141-.142.297-.255.467-.34.426-.227 1.39-.326 2.891-.298.652 0 1.205.057 1.658.17.142.029.27.078.383.15.113.07.198.17.255.297.057.128.1.255.128.383.028.128.042.312.042.553v.66a7.07 7.07 0 00-.042.85v1.022c0 .085-.008.255-.022.51-.014.256-.021.454-.021.596 0 .142.014.305.043.49.028.184.077.34.148.467a.649.649 0 00.468.34c.07.015.177-.027.319-.127.142-.1.297-.24.467-.425a8.01 8.01 0 00.638-.83c.255-.369.524-.794.808-1.277.482-.85.92-1.772 1.318-2.765.028-.057.063-.12.106-.192a.374.374 0 01.149-.149h.042l.043-.042.17-.043h.255l3.486-.042c.312-.029.574-.014.786.042.213.057.333.128.362.213l.085.128z" fill="#fff"/></svg>