<svg width="84" height="24" fill="none" xmlns="http://www.w3.org/2000/svg"><g clip-path="url(#clip0)"><path d="M79.647 20.898c1.64 0 2.8-.294 3.665-.928v-2.876c-.888.612-1.958.997-3.46.997-2.527 0-3.574-1.948-3.574-5.027 0-3.238 1.275-4.89 3.597-4.89 1.366 0 2.709.475 3.414.928V6.113c-.75-.407-2.048-.702-3.824-.702-4.53 0-6.874 3.238-6.874 7.766.022 4.959 2.322 7.721 7.056 7.721zM57.5 19.585v-2.876c-1.093.748-2.96 1.404-4.666 1.404-2.596 0-3.574-1.222-3.734-3.713h8.56v-1.857c0-5.185-2.3-7.132-5.828-7.132-4.325 0-6.374 3.283-6.374 7.789 0 5.185 2.572 7.698 7.08 7.698 2.253 0 3.915-.611 4.962-1.313zM25.016 5.683v5.887h-4.734V5.683H16.73v14.92h3.552v-6.226h4.734v6.227h3.551V5.683h-3.55zM44.57 17.796H43V5.683H32.664v1.268c0 3.645-.227 8.355-1.48 10.845h-1.137V24h3.278v-3.396h7.944V24h3.278v-6.204h.023zm24.243 2.808h4.03l-5.692-8.038 5.008-6.883h-3.574l-5.007 6.883V5.683h-3.551v14.92h3.55v-7.335l5.236 7.336zM51.74 8.174c1.753 0 2.299 1.449 2.299 3.328v.294h-4.94c.091-2.377.956-3.622 2.64-3.622zm-12.292 9.622H34.44c.979-2.241 1.252-6.317 1.252-8.898v-.453h3.756v9.351z" fill="#000"/><path d="M13.772 20.604h-3.62V2.784H8.536c-2.96 0-4.507 1.473-4.507 3.669 0 2.49 1.07 3.645 3.278 5.117l1.82 1.223-5.235 7.81H0l4.712-6.973C2.003 11.706.478 9.826.478 6.657.478 2.694 3.255 0 8.513 0h5.236l.023 20.604z" fill="#FC3F1D"/></g><defs><clipPath id="clip0"><path fill="#fff" d="M0 0h83.54v24H0z"/></clipPath></defs></svg>