<svg display="none" xmlns="http://www.w3.org/2000/svg">

   <!-- add -->
   <symbol id="add" viewBox="0 0 12 14">
      <svg>
         <g>
            <path d="M9.75 0.25H2.25C1.425 0.25 0.7575 0.925 0.7575 1.75L0.75 13.75L6 11.5L11.25 13.75V1.75C11.25 0.925 10.575 0.25 9.75 0.25Z"/>
         </g>
      </svg>
   </symbol>

   <!-- filter -->
   <symbol id="filter-icon" width="20" height="20" viewBox="0 0 20 20">
      <svg>
         <g>
            <path d="M19.091 5.75862H16.4287C16.104 4.17241 14.8053 3 13.2468 3C11.6884 3 10.3897 4.17241 10.065 5.75862H0.90918V7.13793H10.065C10.3897 8.72414 11.6884 9.89655 13.2468 9.89655C14.8053 9.89655 16.104 8.72414 16.4287 7.13793H19.091V5.75862ZM13.2468 8.51724C12.1429 8.51724 11.2988 7.62069 11.2988 6.44828C11.2988 5.27586 12.1429 4.37931 13.2468 4.37931C14.3507 4.37931 15.1949 5.27586 15.1949 6.44828C15.1949 7.62069 14.3507 8.51724 13.2468 8.51724Z"/>
            <path d="M0.90918 13.8778H3.57152C3.89619 15.464 5.19489 16.6364 6.75334 16.6364C8.31178 16.6364 9.61048 15.464 9.93515 13.8778H19.091V12.4985H9.93515C9.61048 10.9123 8.31178 9.73984 6.75334 9.73984C5.19489 9.73984 3.89619 10.9123 3.57152 12.4985H0.90918V13.8778ZM6.75334 11.1191C7.85723 11.1191 8.70139 12.0157 8.70139 13.1881C8.70139 14.3605 7.85723 15.2571 6.75334 15.2571C5.64944 15.2571 4.80528 14.3605 4.80528 13.1881C4.80528 12.0157 5.64944 11.1191 6.75334 11.1191Z"/>
         </g>
      </svg>
   </symbol>

</svg>