<svg width="14" height="16" fill="none" xmlns="http://www.w3.org/2000/svg"><path d="M9.008 5.79c-.09 0-.18.003-.27.008a4.82 4.82 0 00-1.501-1.25.92.92 0 00-.155-1.122c.217-.328.375-.69.418-1.08a1.56 1.56 0 00-.384-1.214 1.484 1.484 0 00-2.124-.09A1.485 1.485 0 003.967.637c-.43 0-.823.18-1.108.505a1.57 1.57 0 00-.37 1.244c.05.372.204.72.415 1.038a.923.923 0 00-.157 1.124A4.79 4.79 0 00.206 8.774a4.792 4.792 0 005.056 4.779 4.78 4.78 0 003.746 1.81 4.792 4.792 0 004.787-4.786 4.792 4.792 0 00-4.787-4.786zm-.87 2.984a3.152 3.152 0 01-2.058 2.952 3.129 3.129 0 01-.218-1.149c0-1.352.858-2.508 2.058-2.952.14.356.218.744.218 1.15zm-6.292 0a3.15 3.15 0 013.146-3.146 3.13 3.13 0 011.913.65 4.792 4.792 0 00-2.507 5.585 3.15 3.15 0 01-2.552-3.089zm7.162 4.95a3.13 3.13 0 01-1.912-.651 4.792 4.792 0 002.507-5.585 3.151 3.151 0 012.552 3.09 3.15 3.15 0 01-3.147 3.145z" fill="#8C8C8C"/></svg>