<svg width="16" height="14" fill="none" xmlns="http://www.w3.org/2000/svg"><path fill-rule="evenodd" clip-rule="evenodd" d="M1.596.254a.879.879 0 00-.878.879V9.66c0 .485.393.879.878.879h4.05l2.015 2.63c.17.223.507.222.678 0l2.014-2.63h4.05a.878.878 0 00.879-.879V1.133a.879.879 0 00-.879-.879H1.596zm6.706 8.463l2.687-2.687a2.058 2.058 0 00-1.454-3.51c-.55 0-1.066.215-1.454.603L8 3.204l-.082-.081a2.058 2.058 0 00-2.907 0 2.055 2.055 0 000 2.907l2.687 2.687a.426.426 0 00.604 0z" fill="#8C8C8C"/><path d="M10.385 5.427L8 7.812 5.614 5.427c-.75-.75-.225-2.053.85-2.053.322 0 .624.125.851.352l.383.383a.426.426 0 00.604 0l.383-.383c.227-.227.529-.352.85-.352 1.063 0 1.608 1.295.85 2.053z" fill="#8C8C8C"/></svg>