<svg width="14" height="14" fill="none" xmlns="http://www.w3.org/2000/svg"><path d="M9.909 7.482a.629.629 0 00-.697.141.65.65 0 00-.188.468.66.66 0 00.198.463c.778.797.846 1.59.655 2.241-.188.642-.635 1.159-1.02 1.405H6.68c-1.145 0-2.044-.256-2.62-.724-.541-.44-.883-1.136-.791-2.256.042-.522.184-1.06.36-1.672l.054-.192c.102-.353.21-.728.301-1.118a2.06 2.06 0 00.432-.382c.26-.313.444-.684.54-1.082a.66.66 0 00-.077-.487.63.63 0 00-.87-.221.649.649 0 00-.294.393c-.039.16-.122.378-.264.543-.124.146-.3.265-.607.265-.629 0-1.065-.533-1.065-1.084 0-1.274.81-2.006 1.81-2.175a2.136 2.136 0 012.306 1.166c.392.797.23 1.537-.016 2.653l-.036.165a.663.663 0 00-.008.043 6.525 6.525 0 00-.802 1.346.659.659 0 00.31.88.63.63 0 00.711-.128.65.65 0 00.143-.214c.471-1.055 1.125-1.682 1.96-2.4l.27-.229c.695-.59 1.493-1.267 2.296-2.27.333.199.629.457.872.763.346.429.565.898.615 1.307-.099.106-.26.182-.504.207a1.618 1.618 0 01-.88-.165.63.63 0 00-.845.265.66.66 0 00.225.87s-.171.105-.285.508c-.113.403-.012.707-.012.707z" fill="#8C8C8C"/><path d="M10.97.69c.12.122.187.288.187.46l-.001.635c.53.259 1.034.688 1.426 1.173.509.627.918 1.456.918 2.309v.153l-.067.137c-.346.705-1.02.976-1.602 1.034-.576.057-1.186-.075-1.625-.323a.66.66 0 01-.225-.87.63.63 0 01.846-.265c.2.112.549.197.88.164.242-.025.404-.101.503-.207-.05-.41-.27-.878-.615-1.307a3.203 3.203 0 00-.872-.763C9.92 4.023 9.122 4.7 8.428 5.29l-.27.23c-.836.717-1.49 1.344-1.961 2.399a.65.65 0 01-.356.355.63.63 0 01-.705-.165.652.652 0 01-.103-.728c.234-.523.505-.962.802-1.346a.663.663 0 01.008-.043l.036-.165c.246-1.116.408-1.856.016-2.653a2.138 2.138 0 00-2.307-1.166c-1 .169-1.81.901-1.81 2.175 0 .55.437 1.084 1.066 1.084.306 0 .483-.12.607-.265.142-.165.225-.383.264-.543a.649.649 0 01.294-.393.63.63 0 01.87.221.66.66 0 01.077.487c-.096.398-.28.769-.54 1.082a2.06 2.06 0 01-.432.382c-.091.39-.199.765-.3 1.118l-.055.192c-.176.612-.318 1.15-.36 1.672-.092 1.12.25 1.816.79 2.255.577.469 1.476.725 2.621.725h2.178c.384-.246.83-.763 1.019-1.405.191-.65.123-1.444-.655-2.241a.65.65 0 01-.198-.463.66.66 0 01.188-.468.637.637 0 01.452-.19.629.629 0 01.452.19l.007.009c.275.27 1.144.715 2.3.275a.63.63 0 01.49.018.646.646 0 01.333.364.66.66 0 01-.163.704.638.638 0 01-.212.133 3.9 3.9 0 01-1.726.254 3.376 3.376 0 01-.043 1.788c-.11.366-.27.714-.48 1.032h1.173c.17 0 .332.069.452.19a.655.655 0 010 .92.634.634 0 01-.452.19H6.68c-1.295 0-2.526-.285-3.418-1.009-.927-.752-1.389-1.899-1.268-3.378.055-.668.233-1.322.406-1.93l.056-.19.124-.44C1.313 6.415.5 5.29.5 4.183.5 2.181 1.857.983 3.38.725a3.411 3.411 0 013.66 1.868c.316.642.394 1.273.363 1.875l.205-.175c.74-.63 1.502-1.277 2.27-2.28V1.15c0-.172.067-.338.187-.46a.634.634 0 01.904 0z" fill="#8C8C8C"/></svg>