<svg width="14" height="16" fill="none" xmlns="http://www.w3.org/2000/svg"><path d="M13.425 9.255L11.42 7.302a.574.574 0 00-.4-.162H7.566v-.934h2.235a.559.559 0 00.566-.551V1.747a.559.559 0 00-.566-.552H7.566V.021H6.434v1.174H2.98a.574.574 0 00-.4.162L.574 3.31a.541.541 0 000 .78l2.007 1.953c.106.104.25.162.4.162h3.453v.934H4.199a.559.559 0 00-.566.552v3.907c0 .304.253.551.566.551h2.235v3.83h1.132v-3.83h3.453c.15 0 .294-.058.4-.161l2.007-1.954a.544.544 0 000-.78zM1.775 3.701l1.44-1.403h6.02v2.805h-6.02l-1.44-1.402zm9.009 7.347H4.765V8.243h6.019l1.44 1.402-1.44 1.403z" fill="#8C8C8C"/><path d="M1.775 3.7l1.44-1.402h6.02v2.805h-6.02l-1.44-1.402zm9.009 7.348H4.765V8.243h6.019l1.44 1.402-1.44 1.403z" fill="#8C8C8C"/></svg>