<svg width="14" height="14" fill="none" xmlns="http://www.w3.org/2000/svg"><path d="M3.85 0A3.852 3.852 0 000 3.85v.35h1.4v-.35A2.45 2.45 0 013.85 1.4c1.05 0 1.932.651 2.282 1.568A2.301 2.301 0 005.25 2.8c-.973 0-1.82.574-2.212 1.4l1.218.7c.147-.406.539-.7.994-.7A1.05 1.05 0 016.3 5.25V6.3h1.4V5.25A1.05 1.05 0 018.75 4.2c.462 0 .847.294.994.7l1.218-.7A2.446 2.446 0 008.75 2.8c-.315 0-.609.056-.882.168A2.433 2.433 0 0110.15 1.4a2.45 2.45 0 012.45 2.45v.35H14v-.35A3.85 3.85 0 0010.15 0C8.848 0 7.7.651 7 1.638A3.858 3.858 0 003.85 0zM2.8 7v1.4h.994A3.487 3.487 0 005.6 10.199V11.9H0s.574.861.987 1.477c.259.392.693.623 1.162.623h9.702c.469 0 .903-.231 1.162-.623L14 11.9H8.4v-1.701A3.487 3.487 0 0010.206 8.4h.994V7H2.8z" fill="#8C8C8C"/></svg>